<svg xmlns="http://www.w3.org/2000/svg" viewBox="0 0 400 1040" fill="none" stroke="currentColor" stroke-linecap="round" stroke-linejoin="round" aria-hidden="true" focusable="false"><g class="stitch" style="--i:13"><path d="M80 150C82 150 90 151 94 151C99 152 103 154 107 155C111 156 115 157 119 158C122 159 126 160 129 161C132 162 135 163 138 164C141 165 145 166 147 167C150 168 152 169 155 170C157 171 159 172 161 173C163 174 165 175 167 176C168 177 170 179 171 180C172 182 174 183 175 184C176 186 177 188 178 189C179 191 179 193 179 195C179 197 178 199 178 201C177 203 177 205 175 206C174 208 173 209 171 210C169 211 168 212 166 213C164 214 163 216 161 217C159 218 156 219 154 220C152 221 149 222 147 223C144 224 141 225 138 226C135 227 133 228 129 229C126 230 122 231 119 232C115 233 111 234 107 235C103 236 99 238 95 239C90 239 83 240 80 240" stroke-width="1.3"/><path d="M80 150C82 151 89 153 93 155C97 156 102 157 106 158C110 160 113 162 117 163C120 164 123 166 127 167C130 168 133 169 136 170C139 171 141 173 144 174C146 175 149 176 151 177C153 178 155 179 157 180C159 181 160 182 161 183C163 184 164 185 165 186C167 187 167 188 168 189C169 190 169 191 169 192C169 193 170 194 170 195C170 196 170 197 170 198C169 199 169 200 168 201C167 202 166 203 165 204C164 205 163 206 162 207C160 208 158 209 157 210C155 211 153 212 151 213C149 214 146 215 144 217C141 218 138 218 136 220C133 221 130 222 127 224C124 225 120 226 117 227C113 229 109 230 106 232C102 233 98 234 93 235C89 237 82 239 80 240" stroke-width="2.8"/><path d="M80 150C82 151 88 155 92 157C96 159 100 161 104 163C108 164 112 166 115 168C118 170 121 171 124 172C127 173 130 175 133 176C136 178 139 179 141 181C144 182 145 183 147 184C149 185 151 186 153 187C154 188 156 189 157 190C158 191 158 192 159 193C160 193 161 194 161 194C161 195 161 195 161 195C161 195 161 195 161 195C161 195 161 195 161 195C161 195 161 195 161 195C160 196 160 197 160 198C159 198 158 199 157 200C156 201 154 202 153 203C151 204 149 205 147 206C145 207 143 208 141 210C138 211 136 212 134 214C131 215 128 216 125 218C121 219 118 221 115 222C112 224 108 225 104 227C100 229 96 230 92 233C88 235 82 239 80 240" stroke-width="1.3"/><path d="M144 170C144 171 146 174 146 177C146 179 147 182 146 184C146 187 145 189 144 191C142 193 140 195 138 196C137 197 136 198 135 198C134 198 134 196 133 194C133 193 132 190 132 188C132 185 132 183 133 181C134 179 137 176 138 174C140 173 143 171 144 170C145 169 144 169 144 170Z" stroke-width="2.6"/><path d="M144 170C144 171 146 173 146 174C146 176 147 179 146 180C146 182 145 184 143 185C142 187 141 188 140 189C139 190 138 190 137 190C137 190 137 188 137 187C136 186 135 185 135 183C135 182 136 179 136 177C137 176 138 175 139 173C141 172 143 170 144 170C145 169 144 169 144 170Z" stroke-width="1.4"/><line x1="144" y1="170" x2="135" y2="197" stroke-width="1.6"/><path d="M144 136h0" stroke-width="3"/><path d="M170 199C169 198 165 197 163 195C162 193 160 190 159 188C159 186 158 183 158 181C158 179 159 175 159 174C160 172 160 171 161 171C162 171 163 171 164 172C166 173 168 176 169 178C170 180 172 182 172 185C173 187 173 190 173 192C172 195 170 198 169 199C169 200 171 199 170 199Z" stroke-width="2.6"/><path d="M171 199C170 199 166 197 165 196C164 195 162 192 162 191C161 189 162 188 162 186C162 185 162 183 162 182C162 180 163 178 164 178C164 178 165 179 166 180C167 181 168 182 169 183C170 185 171 187 172 189C173 191 172 193 172 194C172 196 170 198 170 199C170 200 171 200 171 199Z" stroke-width="1.4"/><line x1="170" y1="199" x2="161" y2="172" stroke-width="1.6"/><path d="M170 233h0" stroke-width="3"/><path d="M151 210C152 211 153 214 153 216C154 219 154 222 154 224C153 227 152 229 150 231C149 233 146 235 145 236C143 237 143 237 142 237C141 237 141 236 140 234C139 233 139 230 138 228C138 225 139 222 140 220C141 217 143 215 145 213C147 211 150 209 151 209C153 208 151 208 151 210Z" stroke-width="2.6"/><path d="M151 209C151 210 152 212 153 214C153 216 153 218 152 220C152 222 152 223 151 225C150 226 148 227 147 228C146 229 145 230 144 230C143 230 143 228 143 227C142 225 142 224 142 222C142 221 143 218 144 216C145 214 146 214 147 212C148 211 150 209 151 208C151 208 150 208 151 209Z" stroke-width="1.4"/><line x1="151" y1="209" x2="142" y2="236" stroke-width="1.6"/><path d="M151 175h0" stroke-width="3"/><path d="M174 155C174 155 175 155 175 156C175 156 174 156 174 157C174 157 174 157 173 158C173 158 173 158 173 158C172 158 172 159 172 159C171 159 171 159 170 158C170 158 169 158 169 158C168 158 168 157 168 157C167 156 167 155 167 155C167 154 167 154 167 153C167 153 167 152 168 152C168 151 168 151 169 150C169 150 170 150 171 149C171 149 172 149 173 149C173 149 174 149 175 149C175 150 176 150 177 151C177 151 178 152 179 152C179 153 179 153 179 154C179 155 179 156 179 157C179 158 179 159 179 160C178 160 177 161 176 161C176 162 175 163 174 163C173 163 172 163 171 163C170 163 169 163 168 163C167 163 166 162 165 162C165 161 164 160 164 159C163 158 163 157 163 156C162 155 162 154 162 153C162 152 163 151 164 149C164 148 165 147 166 146C167 146 168 145 169 145C170 145 172 144 173 144C174 144 175 144 176 145C177 145 179 146 180 147C181 147 182 149 182 150C183 151 184 152 184 153C184 155 184 156 184 158C184 159 183 160 183 162C182 163 181 164 180 165C178 166 176 167 176 167" stroke-width="1.6"/><path d="M185 155C185 157 184 160 183 161C182 163 181 165 179 166C177 167 174 168 172 168C170 168 167 168 165 166C163 165 162 163 161 161C160 160 159 157 159 155C159 153 160 150 161 148C162 147 164 145 166 144C167 143 170 142 172 142C174 142 177 143 179 144C180 145 182 147 183 148C184 150 185 153 185 155Z" stroke-width="1.2"/><path d="M127 167h0M151 177h0M165 186h0M170 195h0M165 204h0M151 213h0M127 223h0" stroke-width="2.2"/></g><g class="stitch" style="--i:31"><path d="M80 360C82 360 90 361 95 361C99 362 103 363 107 364C111 365 115 366 118 368C122 369 126 370 129 371C133 372 136 373 139 374C142 375 144 376 147 377C149 378 152 379 155 380C157 381 159 382 161 383C163 384 164 385 166 386C168 388 170 389 171 390C173 391 174 392 175 394C176 396 177 397 178 399C179 401 179 403 179 405C179 407 178 409 178 411C177 413 176 414 175 416C174 417 173 419 171 420C170 421 168 423 166 424C164 425 163 426 161 427C159 428 157 429 155 430C152 431 150 432 147 433C145 434 142 435 138 436C135 437 132 438 129 439C125 440 122 441 118 442C115 443 111 444 107 445C103 446 99 447 95 448C90 449 82 450 80 450" stroke-width="1.3"/><path d="M80 360C82 361 89 363 93 364C98 366 102 367 106 369C109 370 113 371 117 372C120 374 124 375 127 377C130 378 133 379 136 380C139 381 141 383 144 384C146 385 149 386 151 387C153 388 155 389 157 390C159 391 160 392 161 393C163 394 164 395 165 396C166 397 167 398 168 399C169 400 169 401 170 402C170 403 170 404 170 405C170 406 170 407 170 408C169 409 169 410 168 411C167 412 166 413 165 414C164 415 163 416 162 417C160 418 158 419 157 420C155 421 153 422 151 423C149 424 147 425 144 427C142 428 139 429 136 430C133 431 130 432 127 434C124 435 120 436 116 437C113 438 109 440 106 441C102 443 98 444 94 446C89 447 82 449 80 450" stroke-width="2.8"/><path d="M80 360C82 361 88 365 92 367C96 369 100 371 104 373C108 375 112 376 115 378C118 379 121 381 124 382C128 384 131 385 133 386C136 388 138 389 141 390C143 392 146 393 148 394C150 395 151 396 152 397C154 398 155 399 156 400C157 401 159 402 159 403C160 404 160 404 160 405C161 405 161 405 161 405C161 405 161 405 161 405C161 405 161 405 161 405C161 405 161 406 161 406C160 406 160 407 159 407C159 408 158 409 156 410C155 411 154 412 152 413C151 414 149 415 147 416C145 417 143 418 141 419C138 421 136 422 133 424C130 425 127 426 124 428C121 429 119 431 115 432C112 433 108 435 104 437C100 439 96 440 92 442C88 445 82 448 80 450" stroke-width="1.3"/><path d="M144 379C144 381 146 384 147 387C147 390 147 392 146 395C146 397 144 399 143 401C142 403 139 405 138 406C137 407 136 409 135 409C134 409 134 406 133 404C133 402 133 400 132 397C132 395 132 392 133 390C133 388 135 386 137 384C139 383 144 380 145 380C146 379 143 378 144 379Z" stroke-width="2.6"/><path d="M144 379C145 380 146 383 146 385C146 387 146 389 146 391C145 392 144 394 143 395C142 397 141 398 140 399C139 400 138 400 137 400C136 400 136 398 135 397C135 396 135 395 135 393C136 391 135 389 136 387C136 385 138 384 140 383C141 382 143 380 144 380C145 379 144 379 144 379Z" stroke-width="1.4"/><line x1="144" y1="380" x2="135" y2="407" stroke-width="1.6"/><path d="M144 346h0" stroke-width="3"/><path d="M170 409C169 408 166 407 164 405C162 404 160 401 159 398C158 396 158 393 158 391C158 389 159 387 159 385C160 383 160 381 161 380C162 380 162 381 164 383C165 384 168 386 170 388C171 389 173 391 173 393C173 396 172 400 172 402C172 405 171 408 170 409C170 410 171 409 170 409Z" stroke-width="2.6"/><path d="M170 409C169 409 166 408 165 407C164 405 163 403 163 401C162 399 162 397 162 395C162 394 161 392 162 390C162 389 162 388 163 388C164 388 165 389 166 390C168 391 168 391 169 393C170 394 171 396 171 398C172 400 172 402 172 404C172 406 170 409 170 410C170 411 170 410 170 409Z" stroke-width="1.4"/><line x1="170" y1="409" x2="161" y2="382" stroke-width="1.6"/><path d="M170 443h0" stroke-width="3"/><path d="M150 419C150 420 152 424 153 426C153 429 154 431 153 434C153 436 152 439 150 441C149 443 146 444 144 445C143 447 142 448 141 448C140 448 140 446 140 444C140 442 138 439 138 437C138 434 138 432 139 430C141 428 143 425 145 424C147 422 150 420 151 419C152 418 150 418 150 419Z" stroke-width="2.6"/><path d="M150 420C151 421 152 423 153 424C153 426 153 428 152 430C152 432 152 433 151 435C150 436 148 437 147 438C146 439 144 439 143 439C143 439 143 439 143 437C143 436 142 433 142 432C143 430 143 428 143 426C144 425 146 424 147 422C148 421 150 419 151 419C151 418 150 419 150 420Z" stroke-width="1.4"/><line x1="151" y1="419" x2="142" y2="446" stroke-width="1.6"/><path d="M151 385h0" stroke-width="3"/><path d="M174 365C174 365 174 366 174 366C174 366 175 367 174 367C174 367 174 368 174 368C173 368 173 368 172 369C172 369 172 369 171 369C171 369 171 369 170 369C170 368 169 368 169 368C168 367 168 367 168 367C167 366 167 366 167 365C167 365 167 364 167 363C167 363 168 362 168 362C168 361 168 361 169 360C169 360 170 359 171 359C171 359 172 359 173 359C173 359 174 359 175 359C176 359 176 360 177 360C177 361 178 362 178 362C179 363 179 364 179 364C179 365 179 366 179 367C179 368 179 369 178 370C178 370 177 371 176 371C176 372 175 373 174 373C173 373 172 373 171 373C170 373 169 373 168 373C167 372 166 372 165 372C165 371 164 370 163 369C163 368 163 367 163 366C163 365 162 364 163 363C163 361 163 360 164 359C164 358 165 357 166 357C167 356 168 355 169 355C170 355 172 354 173 354C174 354 175 355 176 355C177 355 179 356 180 356C181 357 182 359 182 360C183 361 184 362 184 363C184 365 184 366 184 368C184 369 183 370 182 372C182 373 181 374 180 375C179 376 177 377 176 377" stroke-width="1.6"/><path d="M185 365C185 367 184 370 183 372C182 373 181 375 179 376C177 377 174 378 172 378C170 378 167 377 166 376C164 375 162 374 161 372C160 370 159 367 159 365C159 363 159 360 161 358C162 357 164 355 166 354C168 353 170 352 172 352C174 352 177 353 179 354C180 355 182 356 183 358C184 360 185 363 185 365Z" stroke-width="1.2"/><path d="M127 377h0M151 387h0M165 396h0M170 405h0M165 414h0M151 423h0M127 433h0" stroke-width="2.2"/></g><g class="stitch" style="--i:49"><path d="M80 570C82 570 90 570 95 571C99 572 103 574 107 575C111 576 115 577 119 578C122 579 126 580 129 581C132 582 136 583 139 584C142 585 144 586 147 587C149 588 152 589 154 590C157 591 159 592 161 593C163 594 165 595 167 596C168 597 170 599 171 600C173 601 174 603 175 604C176 606 177 608 178 609C178 611 179 613 179 615C179 617 178 619 178 621C177 623 176 625 175 626C174 628 172 629 171 630C170 632 168 633 167 634C165 635 163 636 161 637C159 638 157 639 155 640C152 641 150 642 147 643C145 644 142 645 139 646C136 647 132 648 129 649C126 651 122 652 119 653C115 654 111 655 107 656C103 657 99 658 94 658C89 659 82 660 80 660" stroke-width="1.3"/><path d="M80 570C82 571 89 573 93 575C97 576 101 577 105 579C109 580 113 581 117 583C120 584 123 586 127 587C130 588 133 589 136 590C139 592 141 593 144 594C146 595 149 596 151 597C153 598 155 599 157 600C159 601 160 602 161 603C163 604 164 605 165 607C166 608 167 608 168 609C169 610 169 611 169 612C170 613 170 614 170 615C170 616 170 617 170 618C169 619 168 620 168 621C167 621 166 623 165 624C164 625 163 626 161 627C160 628 158 629 157 630C155 631 153 632 151 633C149 634 146 635 144 636C141 637 139 639 136 640C133 641 130 642 127 644C124 645 120 646 117 647C113 649 109 650 106 651C102 653 98 654 93 655C89 657 82 659 80 660" stroke-width="2.8"/><path d="M80 570C82 571 88 576 92 578C96 580 100 581 104 583C108 584 112 586 115 588C118 589 121 591 124 593C128 594 131 595 133 597C136 598 138 599 141 600C143 601 145 603 147 604C149 605 151 606 153 607C155 608 156 609 157 610C158 611 159 612 160 613C160 613 160 614 160 614C161 615 161 615 161 615C161 615 161 615 161 615C161 615 161 615 161 615C161 615 161 615 161 616C160 616 160 617 159 617C158 618 158 619 157 620C156 621 154 622 152 623C151 624 149 625 147 626C146 627 143 628 141 630C138 631 136 633 133 634C131 635 128 636 125 638C122 639 119 640 115 642C112 644 108 646 104 647C100 649 96 651 92 653C88 655 82 659 80 660" stroke-width="1.3"/><path d="M143 590C144 591 145 594 146 596C146 599 146 602 146 605C145 608 145 610 144 612C142 614 140 615 138 616C137 617 136 619 135 619C134 618 133 616 133 614C132 612 131 610 131 608C131 606 133 602 134 600C135 598 136 595 137 594C139 592 143 591 144 590C145 590 143 589 143 590Z" stroke-width="2.6"/><path d="M144 589C145 590 145 593 145 595C145 597 146 598 145 600C145 602 144 604 143 605C142 607 141 608 140 609C139 610 138 611 137 610C137 610 137 608 136 607C136 606 135 604 135 602C134 600 135 598 135 597C136 595 138 595 139 593C141 592 143 591 144 590C145 589 144 588 144 589Z" stroke-width="1.4"/><line x1="144" y1="590" x2="135" y2="617" stroke-width="1.6"/><path d="M144 556h0" stroke-width="3"/><path d="M170 618C169 618 166 617 164 615C163 614 160 611 159 608C158 606 158 603 158 601C158 598 159 596 160 594C160 592 160 590 161 590C162 590 163 591 165 592C166 594 168 595 170 597C171 599 172 601 172 604C173 606 173 609 173 612C172 615 171 618 170 619C170 620 171 619 170 618Z" stroke-width="2.6"/><path d="M170 619C169 618 167 617 165 616C164 615 162 613 162 612C161 610 161 608 161 606C161 604 161 603 162 601C162 600 163 598 163 598C164 598 165 599 166 600C167 601 168 602 169 604C170 605 171 606 172 608C172 610 173 612 172 614C172 616 170 618 170 619C170 620 171 619 170 619Z" stroke-width="1.4"/><line x1="170" y1="619" x2="161" y2="592" stroke-width="1.6"/><path d="M170 653h0" stroke-width="3"/><path d="M150 629C151 630 153 633 153 636C154 638 154 641 154 644C153 647 151 649 150 651C148 653 147 655 145 656C144 657 143 657 142 657C141 657 141 655 140 654C139 652 139 650 139 647C139 645 140 642 141 640C142 637 142 635 144 633C146 631 150 630 151 629C152 629 150 628 150 629Z" stroke-width="2.6"/><path d="M151 629C151 630 153 633 153 635C153 637 153 639 152 640C152 642 150 643 150 645C149 646 148 648 147 649C146 649 145 649 144 649C143 649 143 648 142 647C142 646 141 644 141 642C142 641 142 639 143 637C144 635 146 633 147 632C148 630 150 630 150 629C151 629 150 628 151 629Z" stroke-width="1.4"/><line x1="151" y1="629" x2="142" y2="656" stroke-width="1.6"/><path d="M151 595h0" stroke-width="3"/><path d="M174 575C174 575 174 576 175 576C175 576 175 577 175 577C174 577 174 578 174 578C173 578 173 578 172 579C172 579 172 579 171 579C171 579 171 579 170 578C170 578 169 578 169 578C168 578 168 577 168 576C167 576 167 575 167 575C167 574 167 574 167 574C167 573 167 572 168 572C168 571 169 571 169 570C170 570 170 569 171 569C171 569 172 569 173 569C174 569 174 569 175 569C176 570 176 570 177 571C177 571 178 572 178 572C179 573 179 574 179 574C179 575 179 576 179 577C179 578 179 579 178 579C178 580 177 581 176 582C176 582 175 583 174 583C173 584 172 584 171 584C170 583 169 583 168 583C167 582 166 582 166 581C165 581 164 580 164 579C163 578 163 577 162 576C162 575 162 574 162 573C163 572 163 570 164 569C164 568 165 567 166 567C167 566 168 565 169 565C170 564 171 564 173 564C174 564 175 564 176 565C177 565 179 566 180 567C181 568 182 568 182 569C183 571 183 572 184 573C184 575 184 576 184 578C184 579 183 581 183 582C182 583 181 584 180 585C179 586 177 587 176 588" stroke-width="1.6"/><path d="M185 575C185 577 184 580 183 581C182 583 180 585 178 586C176 587 174 588 172 588C170 588 167 587 166 586C164 585 162 583 161 581C160 579 159 577 159 575C159 573 160 571 161 569C162 567 163 565 165 564C167 562 170 562 172 562C174 562 177 563 178 564C180 565 182 567 183 569C184 571 185 573 185 575Z" stroke-width="1.2"/><path d="M127 587h0M151 597h0M165 606h0M170 615h0M165 624h0M151 633h0M127 643h0" stroke-width="2.2"/></g><g class="stitch" style="--i:68"><path d="M80 780C82 780 90 781 94 781C99 782 103 784 107 785C111 786 115 787 119 788C123 789 126 790 129 791C133 792 135 793 138 794C141 795 144 796 147 797C149 798 152 799 154 800C157 801 159 802 161 803C163 804 165 805 167 806C168 808 170 809 171 810C172 811 174 812 175 814C176 815 177 817 178 819C179 821 179 823 179 825C179 827 178 829 178 831C177 833 176 834 175 836C174 837 173 839 171 840C170 842 168 843 166 844C165 845 163 846 161 847C159 848 156 849 154 850C152 851 150 852 147 853C145 854 141 855 138 856C135 857 132 858 129 859C126 860 123 861 119 862C115 863 111 864 107 865C103 866 99 867 95 868C90 869 82 870 80 870" stroke-width="1.3"/><path d="M80 780C82 781 89 783 93 784C97 786 102 787 106 788C109 790 113 791 117 792C120 794 124 795 127 796C130 798 133 799 136 800C139 801 141 803 144 804C146 805 149 806 151 807C153 808 155 809 157 810C159 811 160 812 162 813C163 814 164 815 165 816C166 818 167 818 168 819C169 820 169 821 169 822C170 823 170 824 170 825C170 826 170 827 169 828C169 829 168 830 168 831C167 832 166 833 165 834C164 835 163 836 162 837C160 837 159 839 157 840C155 841 153 842 151 843C149 844 147 845 144 846C141 847 139 848 136 850C133 851 130 852 127 853C124 855 121 856 117 858C113 859 109 860 105 861C101 863 97 864 93 865C89 867 82 869 80 870" stroke-width="2.8"/><path d="M80 780C82 781 88 785 92 787C96 790 100 791 104 793C108 795 112 796 115 798C119 800 121 801 124 803C127 804 131 805 134 807C136 808 139 809 141 810C143 811 145 813 147 814C149 815 151 816 152 817C154 818 155 819 156 820C158 821 159 822 159 822C160 823 160 824 161 824C161 825 161 825 161 825C161 825 161 825 161 825C161 825 161 825 161 825C161 825 161 825 161 825C160 826 160 827 160 827C159 828 158 829 157 830C156 831 154 831 152 833C151 834 149 835 147 836C145 838 144 838 141 840C139 841 136 842 133 843C131 845 128 846 125 848C121 849 118 851 115 852C112 854 108 855 104 857C100 859 97 860 92 862C88 865 82 869 80 870" stroke-width="1.3"/><path d="M144 799C145 801 146 804 147 806C147 809 148 812 147 815C146 818 145 819 144 821C142 823 140 826 139 827C137 828 136 829 135 829C134 828 133 827 133 825C132 823 132 820 132 818C132 815 132 813 133 811C134 808 137 806 138 804C140 802 143 800 143 799C144 799 144 798 144 799Z" stroke-width="2.6"/><path d="M144 800C144 801 145 803 146 805C146 806 146 809 146 811C146 812 144 814 143 815C142 816 141 818 140 819C139 820 137 821 137 821C136 821 137 819 136 818C136 816 135 814 135 812C135 811 135 809 136 807C137 806 139 805 140 803C141 802 143 800 144 799C144 799 143 799 144 800Z" stroke-width="1.4"/><line x1="144" y1="800" x2="135" y2="827" stroke-width="1.6"/><path d="M144 766h0" stroke-width="3"/><path d="M170 829C169 829 166 826 164 824C162 822 160 821 159 818C158 816 158 813 158 810C158 808 158 806 159 804C159 802 160 801 161 801C162 801 163 802 164 803C166 804 168 805 170 807C171 809 171 811 172 813C172 816 173 819 173 822C172 824 171 828 170 829C170 830 171 830 170 829Z" stroke-width="2.6"/><path d="M170 829C170 829 167 828 166 826C165 825 163 824 162 822C162 820 162 818 162 816C162 815 162 813 163 812C163 811 163 809 163 809C164 808 165 809 166 809C167 810 168 811 169 813C170 814 172 817 172 819C173 821 172 823 171 825C171 826 170 829 170 830C170 830 171 830 170 829Z" stroke-width="1.4"/><line x1="170" y1="829" x2="161" y2="802" stroke-width="1.6"/><path d="M170 863h0" stroke-width="3"/><path d="M150 839C151 840 152 844 153 847C153 849 154 852 153 855C153 857 151 859 150 861C148 863 147 864 145 865C144 866 142 868 141 868C140 868 140 866 140 864C139 862 138 859 139 857C139 854 139 852 140 850C142 848 144 846 145 844C147 842 149 840 150 839C151 838 150 837 150 839Z" stroke-width="2.6"/><path d="M151 839C152 839 152 842 153 844C153 846 153 848 153 849C152 851 151 852 150 854C149 856 148 858 147 859C146 860 145 860 145 860C144 859 143 859 143 858C142 856 142 854 142 852C142 850 143 848 143 847C144 845 145 843 147 842C148 841 149 840 150 839C151 839 151 838 151 839Z" stroke-width="1.4"/><line x1="151" y1="839" x2="142" y2="866" stroke-width="1.6"/><path d="M151 805h0" stroke-width="3"/><path d="M175 785C175 785 175 786 175 786C175 786 174 787 174 787C174 787 174 787 173 788C173 788 173 788 172 788C172 789 172 789 172 789C171 789 170 789 170 789C170 788 169 788 169 788C168 787 168 787 168 787C167 786 167 786 167 785C167 785 167 784 167 783C167 783 168 782 168 782C168 781 169 781 169 780C170 780 170 780 171 779C172 779 172 779 173 779C174 779 174 779 175 779C176 779 176 780 177 781C177 781 178 782 178 782C179 783 179 784 179 785C179 785 180 786 179 787C179 788 179 789 178 789C178 790 177 791 177 792C176 792 175 793 174 793C173 793 172 794 171 794C170 794 169 793 168 793C167 793 167 792 166 791C165 791 164 790 163 789C163 788 163 787 163 786C162 785 162 784 163 783C163 782 163 780 163 779C164 778 165 777 166 777C167 776 168 775 169 775C170 774 172 774 173 774C174 774 175 774 176 775C177 775 179 776 180 777C181 777 182 778 182 780C183 781 184 782 184 783C184 785 184 786 184 788C183 789 183 790 182 791C182 793 181 794 180 795C179 796 177 797 176 797" stroke-width="1.6"/><path d="M185 785C185 787 184 790 183 792C182 793 180 795 178 796C177 797 174 798 172 798C170 798 167 797 165 796C164 795 162 793 161 791C160 789 159 787 159 785C159 783 160 780 161 778C162 777 164 775 165 774C167 773 170 772 172 772C174 772 177 773 179 774C180 775 182 777 183 779C184 780 185 783 185 785Z" stroke-width="1.2"/><path d="M127 797h0M151 807h0M165 816h0M170 825h0M165 834h0M151 843h0M127 853h0" stroke-width="2.2"/></g><g class="stitch" style="--i:2"><a class="flow-node" href="__A__" aria-label="A: Hemp — see this stage in the passport"><circle cx="80" cy="90" r="68" fill="transparent" stroke="none"/><rect x="160" y="50" width="270" height="84" fill="transparent" stroke="none"/><g class="pic"><path d="M134 90C134 100 131 110 127 118C122 125 115 132 107 136C99 141 89 144 79 144C70 144 60 141 52 136C45 132 37 125 33 117C29 109 26 100 26 91C26 82 29 71 33 63C38 55 45 48 53 43C61 39 72 35 81 35C90 36 99 39 107 44C114 48 122 55 127 62C131 70 134 81 134 90Z" stroke-width="3"/><path d="M126 89C126 97 123 106 119 113C115 120 110 126 103 130C96 134 87 136 80 135C72 135 64 133 57 130C51 126 44 119 41 113C37 106 35 97 35 90C35 82 37 73 41 67C44 61 51 55 57 51C64 47 73 44 80 44C88 44 97 47 103 50C110 54 116 61 119 67C123 74 126 82 126 89Z" stroke-width="1.3"/><line x1="80" y1="120" x2="80" y2="96" stroke-width="2"/><path d="M80 102C79 102 75 104 73 104C70 104 68 104 66 103C64 103 61 101 59 99C58 98 56 95 56 94C55 92 54 91 55 90C56 90 57 89 59 89C61 88 64 88 66 88C68 88 70 89 72 90C74 91 76 92 77 95C78 97 79 101 79 103C80 104 82 102 80 102Z" stroke-width="2.6"/><path d="M81 102C80 102 77 103 75 103C73 103 70 104 69 104C67 103 67 102 66 100C65 99 64 98 63 97C63 96 63 94 63 94C63 93 64 92 65 92C66 91 67 91 69 92C71 92 73 93 74 94C76 95 77 96 78 97C79 99 80 102 80 103C80 103 81 102 81 102Z" stroke-width="1.4"/><line x1="80" y1="102" x2="56" y2="90" stroke-width="1.6"/><path d="M81 102C79 101 74 101 72 99C69 98 67 96 66 94C64 92 64 90 63 87C63 85 63 82 63 80C63 78 62 76 63 76C64 75 67 76 68 77C70 78 72 79 74 80C75 82 78 83 79 85C80 88 82 91 82 94C82 97 80 101 79 103C79 104 82 103 81 102Z" stroke-width="2.6"/><path d="M80 102C79 102 76 101 75 100C73 99 71 98 70 97C68 96 68 94 68 92C68 90 67 87 68 86C68 84 68 84 68 84C69 84 70 84 71 84C73 84 75 85 76 86C77 87 79 89 80 91C81 92 81 94 81 96C81 98 80 101 80 102C79 103 81 102 80 102Z" stroke-width="1.4"/><line x1="80" y1="102" x2="64" y2="77" stroke-width="1.6"/><path d="M79 102C78 101 76 98 74 95C73 93 72 90 72 87C72 84 72 81 73 78C74 75 76 73 77 72C78 70 80 67 81 67C82 67 82 69 83 71C84 73 86 76 87 79C88 81 89 84 88 87C88 90 86 93 85 95C83 98 81 101 80 102C79 103 80 103 79 102Z" stroke-width="2.6"/><path d="M80 102C80 101 77 99 76 97C75 95 74 93 74 91C74 89 74 86 75 84C75 83 77 81 78 80C79 79 80 77 80 77C81 77 82 78 82 79C83 81 85 83 85 85C86 87 86 89 86 91C85 93 84 96 83 98C83 99 81 101 81 102C80 103 81 103 80 102Z" stroke-width="1.4"/><line x1="80" y1="102" x2="80" y2="69" stroke-width="1.6"/><path d="M80 102C80 101 79 97 79 94C79 92 79 89 80 87C81 84 84 81 86 80C88 78 91 77 92 77C94 76 95 75 96 75C97 76 96 78 97 80C97 82 98 85 97 88C97 90 95 92 94 94C92 96 90 99 87 100C85 101 81 102 80 102C79 102 80 103 80 102Z" stroke-width="2.6"/><path d="M80 102C80 101 79 98 79 96C79 95 79 92 80 90C81 88 83 87 84 86C86 85 88 84 89 84C90 83 91 83 92 83C93 84 93 85 93 86C93 88 92 89 92 91C91 92 91 94 90 96C89 97 87 99 85 100C84 101 82 101 81 102C80 102 80 102 80 102Z" stroke-width="1.4"/><line x1="80" y1="102" x2="96" y2="77" stroke-width="1.6"/><path d="M80 103C80 101 81 97 82 95C83 93 85 90 87 89C89 88 93 87 95 87C97 87 99 88 101 89C102 89 104 89 105 90C105 91 104 92 104 94C103 95 101 98 100 99C98 101 97 103 95 104C92 104 90 104 88 104C85 104 81 102 80 102C78 101 79 104 80 103Z" stroke-width="2.6"/><path d="M80 103C80 102 80 99 81 97C82 96 84 95 85 94C87 93 88 92 90 92C91 92 94 92 95 92C97 93 98 93 99 94C99 95 98 95 98 96C97 97 96 100 94 101C93 102 92 103 90 103C89 104 87 104 85 104C84 104 81 103 80 102C79 102 80 103 80 103Z" stroke-width="1.4"/><line x1="80" y1="102" x2="104" y2="90" stroke-width="1.6"/><path d="M142 90h0M137 114h0M124 134h0M104 147h0M80 152h0M56 147h0M36 134h0M23 114h0M18 90h0M23 66h0M36 46h0M56 33h0M80 28h0M104 33h0M124 46h0M137 66h0" stroke-width="2.6"/></g><text x="172" y="86" class="fl-letter">A</text><text x="172" y="122" class="fl-name">Hemp</text></a></g><g class="stitch" style="--i:20"><a class="flow-node" href="__B__" aria-label="B: Reclaimed saris — see this stage in the passport"><circle cx="80" cy="300" r="68" fill="transparent" stroke="none"/><rect x="160" y="260" width="270" height="84" fill="transparent" stroke="none"/><g class="pic"><path d="M134 299C134 308 131 320 126 328C122 335 115 343 108 347C100 351 89 354 80 354C71 354 61 351 53 347C45 342 38 334 33 326C29 319 26 309 26 300C26 291 29 281 33 273C38 266 45 258 53 254C61 249 71 246 80 245C89 245 100 248 108 253C116 258 123 265 127 273C132 281 134 290 134 299Z" stroke-width="3"/><path d="M127 301C127 308 124 317 120 323C116 330 110 336 103 340C97 344 87 347 80 347C72 347 64 344 57 340C51 336 44 329 41 323C37 316 34 308 33 301C33 293 36 283 40 277C44 270 51 264 58 260C64 257 72 254 79 254C87 254 96 257 102 261C109 265 115 270 119 277C123 283 127 293 127 301Z" stroke-width="1.3"/><path d="M48 276C49 276 53 278 56 278C59 279 61 279 64 279C67 278 69 277 72 276C74 276 77 274 80 274C83 273 85 273 88 273C91 273 93 274 96 275C99 276 101 277 104 278C107 279 111 279 112 279" stroke-width="2"/><path d="M48 288C49 288 53 290 56 290C59 291 61 291 64 291C67 290 69 289 72 288C75 288 77 286 80 286C83 285 85 285 88 285C91 285 93 286 96 287C99 288 101 289 104 290C107 291 111 291 112 291" stroke-width="2"/><path d="M54 284h0M67 285h0M80 284h0M93 283h0M106 284h0" stroke-width="2.2"/><path d="M48 296C49 297 53 297 56 297C59 296 61 295 64 294C67 294 69 292 72 292C75 291 78 291 80 291C83 291 85 292 88 293C91 294 93 295 96 296C99 297 102 297 104 297C107 297 111 296 112 295" stroke-width="2"/><path d="M48 308C49 308 53 309 56 309C59 309 61 307 64 307C67 306 70 304 72 304C75 303 77 303 80 303C82 304 86 304 88 305C91 306 93 307 96 308C99 309 101 309 104 309C107 309 111 308 112 307" stroke-width="2"/><path d="M52 298l4 8M60 298l4 8M68 298l4 8M76 298l4 8M84 298l4 8M92 298l4 8M100 298l4 8M108 298l4 8" stroke-width="1"/><path d="M48 315C49 314 53 313 56 313C59 312 61 310 64 310C67 309 69 309 72 309C75 309 77 310 80 311C83 312 86 313 88 314C91 315 93 315 96 315C98 315 101 314 104 313C107 312 111 311 112 310" stroke-width="2"/><path d="M48 327C49 326 53 325 56 324C59 323 61 322 64 322C67 321 69 321 72 321C75 321 77 322 80 323C82 324 85 325 88 326C91 327 93 327 96 327C99 327 101 326 104 325C107 324 111 323 112 322" stroke-width="2"/><path d="M54 321h0M67 320h0M80 319h0M93 320h0M106 321h0" stroke-width="2.2"/><path d="M142 300h0M137 324h0M124 344h0M104 357h0M80 362h0M56 357h0M36 344h0M23 324h0M18 300h0M23 276h0M36 256h0M56 243h0M80 238h0M104 243h0M124 256h0M137 276h0" stroke-width="2.6"/></g><text x="172" y="296" class="fl-letter">B</text><text x="172" y="332" class="fl-name">Reclaimed saris</text></a></g><g class="stitch" style="--i:39"><a class="flow-node" href="__C__" aria-label="C: Weaving — see this stage in the passport"><circle cx="80" cy="510" r="68" fill="transparent" stroke="none"/><rect x="160" y="470" width="270" height="84" fill="transparent" stroke="none"/><g class="pic"><path d="M134 510C134 519 132 529 128 537C123 545 116 552 108 557C100 562 90 564 81 564C72 565 61 562 53 558C46 553 38 545 34 537C29 529 25 519 25 511C25 502 28 491 33 484C38 476 46 469 54 464C62 459 71 456 80 456C89 456 99 459 107 464C115 469 123 476 128 483C132 491 134 501 134 510Z" stroke-width="3"/><path d="M126 510C127 518 124 527 120 533C116 540 109 547 103 551C96 554 87 556 79 556C72 556 63 554 56 550C50 546 43 540 40 533C36 527 34 517 35 510C35 502 37 493 41 486C44 480 51 473 57 470C64 466 73 464 80 464C88 464 97 466 104 470C110 474 116 480 120 487C123 493 126 502 126 510Z" stroke-width="1.3"/><line x1="55" y1="482" x2="55" y2="538" stroke-width="1.4"/><line x1="65" y1="482" x2="65" y2="538" stroke-width="1.4"/><line x1="75" y1="482" x2="75" y2="538" stroke-width="1.4"/><line x1="85" y1="482" x2="85" y2="538" stroke-width="1.4"/><line x1="95" y1="482" x2="95" y2="538" stroke-width="1.4"/><line x1="105" y1="482" x2="105" y2="538" stroke-width="1.4"/><rect x="66" y="487" width="8" height="6" fill="#CC5500" stroke-width="1.4"/><rect x="86" y="487" width="8" height="6" fill="#CC5500" stroke-width="1.4"/><rect x="56" y="497" width="8" height="6" fill="#CC5500" stroke-width="1.4"/><rect x="76" y="497" width="8" height="6" fill="#CC5500" stroke-width="1.4"/><rect x="96" y="497" width="8" height="6" fill="#CC5500" stroke-width="1.4"/><rect x="66" y="507" width="8" height="6" fill="#CC5500" stroke-width="1.4"/><rect x="86" y="507" width="8" height="6" fill="#CC5500" stroke-width="1.4"/><rect x="56" y="517" width="8" height="6" fill="#CC5500" stroke-width="1.4"/><rect x="76" y="517" width="8" height="6" fill="#CC5500" stroke-width="1.4"/><rect x="96" y="517" width="8" height="6" fill="#CC5500" stroke-width="1.4"/><rect x="66" y="527" width="8" height="6" fill="#CC5500" stroke-width="1.4"/><rect x="86" y="527" width="8" height="6" fill="#CC5500" stroke-width="1.4"/><path d="M142 510h0M137 534h0M124 554h0M104 567h0M80 572h0M56 567h0M36 554h0M23 534h0M18 510h0M23 486h0M36 466h0M56 453h0M80 448h0M104 453h0M124 466h0M137 486h0" stroke-width="2.6"/></g><text x="172" y="506" class="fl-letter">C</text><text x="172" y="542" class="fl-name">Weaving</text></a></g><g class="stitch" style="--i:57"><a class="flow-node" href="__D__" aria-label="D: Finishing — see this stage in the passport"><circle cx="80" cy="720" r="68" fill="transparent" stroke="none"/><rect x="160" y="680" width="270" height="84" fill="transparent" stroke="none"/><g class="pic"><path d="M134 720C134 729 131 739 127 747C122 755 116 763 108 768C100 772 88 774 79 774C70 773 61 771 53 767C45 762 37 754 33 747C28 739 26 730 26 721C26 712 29 701 34 693C38 685 46 678 53 673C61 669 71 667 80 666C88 666 99 668 106 673C114 677 122 685 127 693C131 701 134 711 134 720Z" stroke-width="3"/><path d="M126 720C126 727 124 737 120 743C116 750 110 756 103 760C96 763 88 765 80 766C72 766 64 764 57 760C50 756 44 749 40 743C36 736 33 728 33 721C33 713 36 704 40 698C44 691 50 684 57 680C64 676 72 674 80 674C88 674 97 677 103 680C110 684 116 690 120 697C124 703 126 712 126 720Z" stroke-width="1.3"/><path d="M108 720l-0 5M106 731l-2 5M100 740l-4 4M91 746l-5 2M80 748l-5 0M69 746l-5 -2M60 740l-4 -4M54 731l-2 -5M52 720l-0 -5M54 709l2 -5M60 700l4 -4M69 694l5 -2M80 692l5 -0M91 694l5 2M100 700l4 4M106 709l2 5" stroke-width="2.2"/><path d="M69 709l22 22M91 709l-22 22" stroke-width="2.4"/><path d="M80 700h0M80 740h0M60 720h0M100 720h0" stroke-width="3"/><path d="M142 720h0M137 744h0M124 764h0M104 777h0M80 782h0M56 777h0M36 764h0M23 744h0M18 720h0M23 696h0M36 676h0M56 663h0M80 658h0M104 663h0M124 676h0M137 696h0" stroke-width="2.6"/></g><text x="172" y="716" class="fl-letter">D</text><text x="172" y="752" class="fl-name">Finishing</text></a></g><g class="stitch" style="--i:75"><a class="flow-node" href="__E__" aria-label="E: Distribution — see this stage in the passport"><circle cx="80" cy="930" r="68" fill="transparent" stroke="none"/><rect x="160" y="890" width="270" height="84" fill="transparent" stroke="none"/><g class="pic"><path d="M133 930C133 939 131 949 126 957C122 965 114 973 107 977C99 982 88 984 79 984C70 984 61 981 54 977C46 972 38 965 34 957C29 949 26 939 26 930C26 921 28 912 33 904C37 896 45 888 53 883C61 879 71 876 80 876C89 876 99 879 107 883C115 888 123 896 127 903C132 911 134 921 133 930Z" stroke-width="3"/><path d="M126 931C126 938 123 946 120 952C116 959 110 966 103 970C97 974 88 976 81 976C73 976 64 973 57 969C50 965 44 959 40 953C36 946 34 937 34 930C34 922 37 914 40 908C44 901 51 894 58 890C64 886 73 884 80 884C88 884 97 886 103 890C110 893 116 900 120 907C124 913 126 923 126 931Z" stroke-width="1.3"/><path d="M54 954V926H106V954Z" stroke-width="2.2"/><path d="M46 926L66 906H94L114 926Z" stroke-width="2.2"/><path d="M74 954v-14h12v14" stroke-width="1.8"/><path d="M58 932h10v8h-10zM92 932h10v8h-10z" stroke-width="1.4"/><path d="M80 916h0" stroke-width="3"/><path d="M142 930h0M137 954h0M124 974h0M104 987h0M80 992h0M56 987h0M36 974h0M23 954h0M18 930h0M23 906h0M36 886h0M56 873h0M80 868h0M104 873h0M124 886h0M137 906h0" stroke-width="2.6"/></g><text x="172" y="926" class="fl-letter">E</text><text x="172" y="962" class="fl-name">Distribution</text></a></g></svg>