<svg xmlns="http://www.w3.org/2000/svg" viewBox="0 0 420 420" fill="none" stroke="currentColor" stroke-linecap="round" stroke-linejoin="round" aria-hidden="true" focusable="false"><path d="M60 80C64 80 77 77 86 77C96 78 107 80 115 84C123 88 130 95 136 101C142 107 147 116 150 122C153 127 156 132 155 135C153 138 148 138 142 138C135 138 124 138 116 136C107 134 98 131 90 126C83 120 77 113 71 105C66 97 61 84 59 79C57 75 55 80 60 80Z" stroke-width="2.6"/><path d="M60 80C63 80 73 77 80 77C86 78 94 80 100 83C106 86 111 91 115 96C119 100 122 106 125 110C127 114 129 117 128 119C128 121 124 122 119 122C114 122 107 122 101 120C94 119 88 116 83 112C78 108 73 103 69 97C65 92 61 82 60 79C58 77 56 80 60 80Z" stroke-width="1.4"/><line x1="60" y1="80" x2="151" y2="133" stroke-width="1.6"/><line x1="84" y1="94" x2="98" y2="91" stroke-width="1.2"/><line x1="84" y1="94" x2="89" y2="107" stroke-width="1.2"/><line x1="98" y1="102" x2="114" y2="97" stroke-width="1.2"/><line x1="98" y1="102" x2="101" y2="118" stroke-width="1.2"/><line x1="112" y1="110" x2="128" y2="104" stroke-width="1.2"/><line x1="112" y1="110" x2="115" y2="127" stroke-width="1.2"/><line x1="127" y1="118" x2="142" y2="115" stroke-width="1.2"/><line x1="127" y1="118" x2="131" y2="133" stroke-width="1.2"/><line x1="140" y1="126" x2="153" y2="126" stroke-width="1.2"/><line x1="140" y1="126" x2="146" y2="137" stroke-width="1.2"/><path d="M210 40C209 44 205 54 201 60C196 66 190 73 184 77C178 81 171 84 164 86C157 88 149 87 143 87C138 87 134 87 133 85C131 82 133 78 136 73C138 68 141 61 146 56C151 51 159 46 165 43C172 40 180 38 187 38C195 37 206 39 210 39C214 40 212 37 210 40Z" stroke-width="2.6"/><path d="M209 40C208 43 207 50 204 54C201 59 197 64 192 67C188 70 181 72 176 73C171 74 166 74 162 74C159 73 155 74 154 72C153 71 154 67 156 64C158 61 161 56 164 52C168 48 172 44 177 42C182 39 188 39 193 39C199 38 207 39 210 40C213 40 210 38 209 40Z" stroke-width="1.4"/><line x1="210" y1="40" x2="135" y2="83" stroke-width="1.6"/><line x1="191" y1="51" x2="187" y2="62" stroke-width="1.2"/><line x1="191" y1="51" x2="179" y2="49" stroke-width="1.2"/><line x1="179" y1="58" x2="176" y2="72" stroke-width="1.2"/><line x1="179" y1="58" x2="166" y2="53" stroke-width="1.2"/><line x1="167" y1="65" x2="165" y2="79" stroke-width="1.2"/><line x1="167" y1="65" x2="154" y2="60" stroke-width="1.2"/><line x1="155" y1="72" x2="152" y2="84" stroke-width="1.2"/><line x1="155" y1="72" x2="143" y2="68" stroke-width="1.2"/><line x1="145" y1="78" x2="139" y2="87" stroke-width="1.2"/><line x1="145" y1="78" x2="134" y2="78" stroke-width="1.2"/><path d="M330 150C333 145 337 130 343 121C349 112 358 103 367 97C376 91 387 87 397 85C407 82 418 82 426 83C433 83 440 82 442 85C444 88 440 95 437 101C433 108 427 117 420 125C413 132 404 140 394 145C384 150 373 152 362 152C351 153 335 150 329 150C324 149 328 155 330 150Z" stroke-width="2.6"/><path d="M331 150C332 147 335 135 340 129C344 122 350 117 357 112C363 108 371 104 378 102C385 100 393 101 399 101C405 101 410 101 411 104C413 106 409 110 406 115C404 120 400 127 395 132C390 137 383 143 376 146C369 150 361 151 353 152C346 153 334 150 331 150C327 149 329 154 331 150Z" stroke-width="1.4"/><line x1="330" y1="150" x2="438" y2="88" stroke-width="1.6"/><line x1="358" y1="134" x2="364" y2="118" stroke-width="1.2"/><line x1="358" y1="134" x2="375" y2="137" stroke-width="1.2"/><line x1="375" y1="124" x2="379" y2="105" stroke-width="1.2"/><line x1="375" y1="124" x2="394" y2="130" stroke-width="1.2"/><line x1="392" y1="114" x2="396" y2="95" stroke-width="1.2"/><line x1="392" y1="114" x2="411" y2="121" stroke-width="1.2"/><line x1="409" y1="104" x2="414" y2="87" stroke-width="1.2"/><line x1="409" y1="104" x2="426" y2="109" stroke-width="1.2"/><line x1="425" y1="95" x2="432" y2="82" stroke-width="1.2"/><line x1="425" y1="95" x2="440" y2="95" stroke-width="1.2"/><path d="M129 240C132 243 143 250 148 257C153 263 158 273 160 281C162 289 161 298 160 305C159 313 156 321 154 327C152 332 151 338 148 339C145 339 141 334 137 330C133 325 127 319 124 312C120 305 117 296 116 288C115 280 116 271 119 263C121 255 129 243 130 240C132 236 126 238 129 240Z" stroke-width="2.6"/><path d="M129 240C132 242 139 248 143 253C146 257 150 264 151 269C153 275 152 281 152 287C151 292 149 299 148 303C146 307 145 311 143 312C141 312 137 308 134 304C132 301 128 297 126 292C124 286 121 280 121 274C120 268 120 262 122 256C123 251 128 243 130 240C131 238 127 238 129 240Z" stroke-width="1.4"/><line x1="130" y1="240" x2="147" y2="335" stroke-width="1.6"/><line x1="134" y1="265" x2="145" y2="273" stroke-width="1.2"/><line x1="134" y1="265" x2="128" y2="276" stroke-width="1.2"/><line x1="137" y1="279" x2="150" y2="287" stroke-width="1.2"/><line x1="137" y1="279" x2="127" y2="291" stroke-width="1.2"/><line x1="140" y1="294" x2="153" y2="302" stroke-width="1.2"/><line x1="140" y1="294" x2="130" y2="306" stroke-width="1.2"/><line x1="142" y1="309" x2="154" y2="317" stroke-width="1.2"/><line x1="142" y1="309" x2="134" y2="320" stroke-width="1.2"/><line x1="145" y1="323" x2="152" y2="332" stroke-width="1.2"/><line x1="145" y1="323" x2="141" y2="334" stroke-width="1.2"/><path d="M300 320C296 321 281 327 271 328C261 329 249 328 240 325C230 323 221 317 213 312C206 306 199 298 194 293C190 287 187 281 188 278C189 275 195 275 201 274C208 272 219 270 229 270C238 271 248 273 257 278C267 282 277 289 284 296C291 303 297 316 300 320C302 324 305 319 300 320Z" stroke-width="2.6"/><path d="M300 321C296 322 287 325 279 326C272 326 264 326 257 324C250 322 243 317 237 314C232 310 227 305 224 301C221 297 218 294 219 291C220 289 225 287 230 286C235 285 242 284 249 285C255 285 264 287 270 290C277 293 283 297 288 302C293 307 298 318 300 321C302 324 303 320 300 321Z" stroke-width="1.4"/><line x1="300" y1="320" x2="192" y2="281" stroke-width="1.6"/><line x1="272" y1="310" x2="257" y2="315" stroke-width="1.2"/><line x1="272" y1="310" x2="264" y2="296" stroke-width="1.2"/><line x1="255" y1="304" x2="239" y2="312" stroke-width="1.2"/><line x1="255" y1="304" x2="248" y2="287" stroke-width="1.2"/><line x1="238" y1="297" x2="222" y2="307" stroke-width="1.2"/><line x1="238" y1="297" x2="232" y2="280" stroke-width="1.2"/><line x1="221" y1="291" x2="206" y2="298" stroke-width="1.2"/><line x1="221" y1="291" x2="214" y2="276" stroke-width="1.2"/><line x1="205" y1="286" x2="192" y2="288" stroke-width="1.2"/><line x1="205" y1="286" x2="196" y2="275" stroke-width="1.2"/><path d="M33 380C33 381 33 381 33 381C32 382 32 382 31 383C31 383 31 383 30 383C30 383 29 383 28 383C28 382 28 382 27 382C27 381 27 380 27 380C27 379 27 379 27 378C28 378 28 378 29 377C29 377 30 377 30 377C30 377 31 377 31 377C32 378 32 378 33 379C33 379 33 380 33 380Z" stroke-width="1.8"/><path d="M95 394C95 395 95 395 95 396C94 396 94 396 94 397C93 397 92 397 92 397C91 397 91 397 91 397C90 396 90 396 89 395C89 395 89 395 89 394C89 394 89 393 89 393C90 392 90 392 90 391C91 391 92 391 92 391C93 391 93 391 93 391C94 392 94 392 95 393C95 393 95 394 95 394Z" stroke-width="1.8"/><path d="M157 380C157 381 157 381 157 382C156 382 156 382 156 383C155 383 155 383 154 383C154 383 153 383 153 383C152 382 152 382 151 382C151 381 151 381 151 380C151 379 151 379 151 379C152 378 152 378 152 377C153 377 154 377 154 377C155 377 155 377 156 377C156 378 156 378 157 379C157 379 157 380 157 380Z" stroke-width="1.8"/><path d="M219 394C219 395 219 395 219 396C218 396 218 396 217 397C217 397 217 397 216 397C216 397 215 397 214 397C214 396 214 396 213 396C213 395 213 394 213 394C213 394 213 393 213 393C214 392 214 392 215 391C215 391 216 391 216 391C217 391 217 391 217 391C218 392 218 392 219 392C219 393 219 394 219 394Z" stroke-width="1.8"/><path d="M281 380C281 381 281 381 281 381C280 382 280 382 280 383C279 383 279 383 278 383C278 383 277 383 276 383C276 382 276 382 275 381C275 381 275 380 275 380C275 379 275 379 275 378C276 378 276 378 277 377C277 377 277 377 278 377C278 377 279 377 279 377C280 378 280 378 281 378C281 379 281 380 281 380Z" stroke-width="1.8"/><path d="M343 394C343 395 343 395 343 395C342 396 342 396 341 397C341 397 341 397 340 397C340 397 339 397 338 397C338 396 338 396 337 395C337 395 337 395 337 394C337 394 337 393 337 393C338 392 338 392 338 391C339 391 340 391 340 391C341 391 341 391 341 391C342 392 342 392 343 392C343 393 343 394 343 394Z" stroke-width="1.8"/></svg>