<svg xmlns="http://www.w3.org/2000/svg" viewBox="0 0 600 92" fill="none" stroke="currentColor" stroke-linecap="round" stroke-linejoin="round" aria-hidden="true" focusable="false"><path d="M40 12C84 11 212 10 300 10C387 10 521 12 566 12" stroke-width="3.4"/><path d="M40 80C83 80 212 82 300 82C387 82 522 80 566 80" stroke-width="3.4"/><path d="M40 19C83 19 213 17 300 17C388 17 522 19 566 19" stroke-width="1.2"/><path d="M40 73C83 73 212 75 300 75C387 75 522 73 566 73" stroke-width="1.2"/><path d="M66 46C65 51 65 56 64 60C62 63 60 67 58 70C56 72 53 75 50 77C47 79 43 80 40 80C37 80 33 78 30 77C26 75 23 73 21 70C19 67 18 64 16 60C15 55 14 50 14 46C14 41 15 37 16 33C18 29 19 25 21 22C24 19 27 16 30 15C33 13 36 12 40 13C43 13 47 13 50 15C53 17 56 19 59 22C61 25 63 29 64 33C65 37 66 42 66 46Z" stroke-width="3.4"/><path d="M42 46C42 46 43 47 43 48C43 49 42 49 42 50C42 51 42 51 41 52C41 52 40 53 40 53C39 53 38 53 37 53C36 53 36 52 35 51C34 50 34 49 33 48C33 47 33 45 33 44C33 42 33 40 34 39C34 38 35 36 36 35C37 34 38 33 39 33C41 32 42 32 43 33C44 33 46 34 47 35C48 36 50 38 50 40C51 42 51 44 51 46C51 48 51 51 51 53C50 56 50 58 48 60C47 62 45 64 44 65C42 66 40 66 38 66C36 66 34 66 32 64C31 63 29 61 28 59C26 56 25 53 24 50C24 47 24 44 24 40C24 37 25 34 27 31C28 28 30 25 32 23C34 21 36 20 39 20C41 19 44 19 47 20C49 21 51 23 53 26C55 28 57 31 58 35C60 38 61 43 61 47C61 51 59 57 59 59" stroke-width="2.2"/><path d="M566 12C569 18 588 34 588 46C588 57 569 74 566 80" stroke-width="3.4"/><path d="M566 19C569 24 579 37 579 46C579 55 568 68 566 73" stroke-width="1.2"/><line x1="80" y1="26" x2="80" y2="66" stroke-width="1.1"/><line x1="85" y1="26" x2="84" y2="66" stroke-width="1.1"/><line x1="102" y1="26" x2="102" y2="66" stroke-width="2.2"/><line x1="108" y1="26" x2="108" y2="66" stroke-width="2.2"/><path d="M120 32h0" stroke-width="3"/><path d="M120 42h0" stroke-width="3"/><path d="M120 52h0" stroke-width="3"/><path d="M120 62h0" stroke-width="3"/><path d="M129 32h0" stroke-width="3"/><path d="M129 42h0" stroke-width="3"/><path d="M129 52h0" stroke-width="3"/><path d="M129 62h0" stroke-width="3"/><line x1="146" y1="28" x2="146" y2="36" stroke-width="1.6"/><line x1="146" y1="44" x2="146" y2="52" stroke-width="1.6"/><line x1="146" y1="60" x2="146" y2="68" stroke-width="1.6"/><line x1="154" y1="28" x2="154" y2="36" stroke-width="1.6"/><line x1="154" y1="44" x2="154" y2="52" stroke-width="1.6"/><line x1="154" y1="60" x2="154" y2="68" stroke-width="1.6"/><line x1="162" y1="28" x2="162" y2="36" stroke-width="1.6"/><line x1="162" y1="44" x2="162" y2="52" stroke-width="1.6"/><line x1="162" y1="60" x2="162" y2="68" stroke-width="1.6"/><line x1="172" y1="26" x2="172" y2="66" stroke-width="1.1"/><line x1="177" y1="26" x2="178" y2="66" stroke-width="1.1"/><line x1="182" y1="26" x2="182" y2="66" stroke-width="1.1"/><line x1="200" y1="26" x2="200" y2="66" stroke-width="2.2"/><line x1="230" y1="26" x2="230" y2="66" stroke-width="2.2"/><path d="M242 32h0" stroke-width="3"/><path d="M242 42h0" stroke-width="3"/><path d="M242 52h0" stroke-width="3"/><path d="M242 62h0" stroke-width="3"/><path d="M251 32h0" stroke-width="3"/><path d="M251 42h0" stroke-width="3"/><path d="M251 52h0" stroke-width="3"/><path d="M251 62h0" stroke-width="3"/><path d="M260 32h0" stroke-width="3"/><path d="M260 42h0" stroke-width="3"/><path d="M260 52h0" stroke-width="3"/><path d="M260 62h0" stroke-width="3"/><line x1="276" y1="28" x2="276" y2="36" stroke-width="1.6"/><line x1="276" y1="44" x2="276" y2="52" stroke-width="1.6"/><line x1="276" y1="60" x2="276" y2="68" stroke-width="1.6"/><line x1="284" y1="28" x2="284" y2="36" stroke-width="1.6"/><line x1="284" y1="44" x2="284" y2="52" stroke-width="1.6"/><line x1="284" y1="60" x2="284" y2="68" stroke-width="1.6"/><line x1="292" y1="28" x2="292" y2="36" stroke-width="1.6"/><line x1="292" y1="44" x2="292" y2="52" stroke-width="1.6"/><line x1="292" y1="60" x2="292" y2="68" stroke-width="1.6"/><line x1="300" y1="28" x2="300" y2="36" stroke-width="1.6"/><line x1="300" y1="44" x2="300" y2="52" stroke-width="1.6"/><line x1="300" y1="60" x2="300" y2="68" stroke-width="1.6"/><line x1="310" y1="26" x2="310" y2="66" stroke-width="1.1"/><line x1="315" y1="26" x2="315" y2="66" stroke-width="1.1"/><line x1="332" y1="26" x2="332" y2="66" stroke-width="2.2"/><line x1="344" y1="26" x2="344" y2="66" stroke-width="2.2"/><path d="M356 32h0" stroke-width="3"/><path d="M356 42h0" stroke-width="3"/><path d="M356 52h0" stroke-width="3"/><path d="M356 62h0" stroke-width="3"/><path d="M365 32h0" stroke-width="3"/><path d="M365 42h0" stroke-width="3"/><path d="M365 52h0" stroke-width="3"/><path d="M365 62h0" stroke-width="3"/><path d="M374 32h0" stroke-width="3"/><path d="M374 42h0" stroke-width="3"/><path d="M374 52h0" stroke-width="3"/><path d="M374 62h0" stroke-width="3"/><path d="M383 32h0" stroke-width="3"/><path d="M383 42h0" stroke-width="3"/><path d="M383 52h0" stroke-width="3"/><path d="M383 62h0" stroke-width="3"/><line x1="400" y1="28" x2="400" y2="36" stroke-width="1.6"/><line x1="400" y1="44" x2="400" y2="52" stroke-width="1.6"/><line x1="400" y1="60" x2="400" y2="68" stroke-width="1.6"/><line x1="408" y1="28" x2="408" y2="36" stroke-width="1.6"/><line x1="408" y1="44" x2="408" y2="52" stroke-width="1.6"/><line x1="408" y1="60" x2="408" y2="68" stroke-width="1.6"/><line x1="416" y1="28" x2="416" y2="36" stroke-width="1.6"/><line x1="416" y1="44" x2="416" y2="52" stroke-width="1.6"/><line x1="416" y1="60" x2="416" y2="68" stroke-width="1.6"/><line x1="424" y1="28" x2="424" y2="36" stroke-width="1.6"/><line x1="424" y1="44" x2="424" y2="52" stroke-width="1.6"/><line x1="424" y1="60" x2="424" y2="68" stroke-width="1.6"/><line x1="432" y1="28" x2="432" y2="36" stroke-width="1.6"/><line x1="432" y1="44" x2="432" y2="52" stroke-width="1.6"/><line x1="432" y1="60" x2="432" y2="68" stroke-width="1.6"/><line x1="444" y1="26" x2="445" y2="66" stroke-width="1.1"/><line x1="449" y1="26" x2="450" y2="66" stroke-width="1.1"/><line x1="466" y1="26" x2="466" y2="66" stroke-width="2.2"/><line x1="496" y1="26" x2="496" y2="66" stroke-width="2.2"/><path d="M508 32h0" stroke-width="3"/><path d="M508 42h0" stroke-width="3"/><path d="M508 52h0" stroke-width="3"/><path d="M508 62h0" stroke-width="3"/><path d="M517 32h0" stroke-width="3"/><path d="M517 42h0" stroke-width="3"/><path d="M517 52h0" stroke-width="3"/><path d="M517 62h0" stroke-width="3"/><line x1="534" y1="28" x2="534" y2="36" stroke-width="1.6"/><line x1="534" y1="44" x2="534" y2="52" stroke-width="1.6"/><line x1="534" y1="60" x2="534" y2="68" stroke-width="1.6"/><line x1="542" y1="28" x2="542" y2="36" stroke-width="1.6"/><line x1="542" y1="44" x2="542" y2="52" stroke-width="1.6"/><line x1="542" y1="60" x2="542" y2="68" stroke-width="1.6"/><line x1="550" y1="28" x2="550" y2="36" stroke-width="1.6"/><line x1="550" y1="44" x2="550" y2="52" stroke-width="1.6"/><line x1="550" y1="60" x2="550" y2="68" stroke-width="1.6"/><line x1="558" y1="28" x2="558" y2="36" stroke-width="1.6"/><line x1="558" y1="44" x2="558" y2="52" stroke-width="1.6"/><line x1="558" y1="60" x2="558" y2="68" stroke-width="1.6"/><line x1="566" y1="28" x2="566" y2="36" stroke-width="1.6"/><line x1="566" y1="44" x2="566" y2="52" stroke-width="1.6"/><line x1="566" y1="60" x2="566" y2="68" stroke-width="1.6"/></svg>