<svg xmlns="http://www.w3.org/2000/svg" viewBox="0 0 410 360" fill="none" stroke="currentColor" stroke-linecap="round" stroke-linejoin="round" aria-hidden="true" focusable="false"><g class="layer-1"><path d="M47 40C57 41 89 46 110 46C130 46 151 44 171 43C192 41 213 38 234 37C255 35 276 34 297 35C318 36 349 41 360 42" stroke-width="2.6"/><path d="M46 64C57 65 88 70 109 71C130 71 151 69 172 67C193 66 214 61 235 60C255 59 275 58 296 59C317 60 349 64 359 66" stroke-width="2.6"/><line x1="47" y1="40" x2="47" y2="64" stroke-width="2"/><line x1="359" y1="41" x2="359" y2="65" stroke-width="2"/><line x1="55" y1="44" x2="61" y2="62" stroke-width="1.1"/><line x1="62" y1="45" x2="68" y2="63" stroke-width="1.1"/><line x1="69" y1="46" x2="75" y2="64" stroke-width="1.1"/><line x1="76" y1="46" x2="82" y2="64" stroke-width="1.1"/><line x1="83" y1="47" x2="89" y2="65" stroke-width="1.1"/><line x1="90" y1="48" x2="96" y2="66" stroke-width="1.1"/><line x1="97" y1="48" x2="103" y2="66" stroke-width="1.1"/><line x1="104" y1="49" x2="110" y2="67" stroke-width="1.1"/><line x1="111" y1="49" x2="117" y2="67" stroke-width="1.1"/><line x1="118" y1="49" x2="124" y2="67" stroke-width="1.1"/><line x1="125" y1="49" x2="131" y2="67" stroke-width="1.1"/><line x1="132" y1="49" x2="138" y2="67" stroke-width="1.1"/><line x1="139" y1="49" x2="145" y2="67" stroke-width="1.1"/><line x1="146" y1="48" x2="152" y2="66" stroke-width="1.1"/><line x1="153" y1="48" x2="159" y2="66" stroke-width="1.1"/><line x1="160" y1="47" x2="166" y2="65" stroke-width="1.1"/><line x1="167" y1="47" x2="173" y2="65" stroke-width="1.1"/><line x1="174" y1="46" x2="180" y2="64" stroke-width="1.1"/><line x1="181" y1="45" x2="187" y2="63" stroke-width="1.1"/><line x1="188" y1="44" x2="194" y2="62" stroke-width="1.1"/><line x1="195" y1="43" x2="201" y2="61" stroke-width="1.1"/><line x1="202" y1="43" x2="208" y2="61" stroke-width="1.1"/><line x1="209" y1="42" x2="215" y2="60" stroke-width="1.1"/><line x1="216" y1="41" x2="222" y2="59" stroke-width="1.1"/><line x1="223" y1="40" x2="229" y2="58" stroke-width="1.1"/><line x1="230" y1="39" x2="236" y2="57" stroke-width="1.1"/><line x1="237" y1="39" x2="243" y2="57" stroke-width="1.1"/><line x1="244" y1="38" x2="250" y2="56" stroke-width="1.1"/><line x1="251" y1="38" x2="257" y2="56" stroke-width="1.1"/><line x1="258" y1="37" x2="264" y2="55" stroke-width="1.1"/><line x1="265" y1="37" x2="271" y2="55" stroke-width="1.1"/><line x1="272" y1="37" x2="278" y2="55" stroke-width="1.1"/><line x1="279" y1="37" x2="285" y2="55" stroke-width="1.1"/><line x1="286" y1="37" x2="292" y2="55" stroke-width="1.1"/><line x1="293" y1="37" x2="299" y2="55" stroke-width="1.1"/><line x1="300" y1="38" x2="306" y2="56" stroke-width="1.1"/><line x1="307" y1="38" x2="313" y2="56" stroke-width="1.1"/><line x1="314" y1="39" x2="320" y2="57" stroke-width="1.1"/><line x1="321" y1="40" x2="327" y2="58" stroke-width="1.1"/><line x1="328" y1="40" x2="334" y2="58" stroke-width="1.1"/><line x1="335" y1="41" x2="341" y2="59" stroke-width="1.1"/><line x1="342" y1="42" x2="348" y2="60" stroke-width="1.1"/><line x1="349" y1="43" x2="355" y2="61" stroke-width="1.1"/><path d="M38 142C49 141 80 138 102 137C124 136 146 136 167 137C189 139 210 144 231 146C253 147 274 149 295 148C317 147 349 143 359 142" stroke-width="2.6"/><path d="M39 166C49 165 82 161 104 161C125 160 145 161 166 163C188 164 209 168 231 170C252 171 275 173 296 172C318 171 349 166 359 165" stroke-width="2.6"/><line x1="38" y1="143" x2="38" y2="167" stroke-width="2"/><line x1="360" y1="142" x2="360" y2="166" stroke-width="2"/><path d="M47 162C47 160 50 147 51 147C53 147 56 159 57 162" stroke-width="1.3"/><path d="M59 160C59 158 62 145 63 145C65 145 67 158 68 160" stroke-width="1.3"/><path d="M70 159C71 157 74 144 75 144C77 144 79 157 80 159" stroke-width="1.3"/><path d="M82 158C83 155 86 143 88 143C89 143 92 155 92 158" stroke-width="1.3"/><path d="M95 157C95 155 98 142 99 142C101 142 104 155 104 157" stroke-width="1.3"/><path d="M106 156C107 154 110 141 111 141C113 141 116 154 117 157" stroke-width="1.3"/><path d="M118 156C119 154 122 141 123 141C125 141 128 154 129 156" stroke-width="1.3"/><path d="M130 156C131 154 134 141 135 141C137 141 139 154 140 156" stroke-width="1.3"/><path d="M142 157C143 154 146 141 147 141C149 141 151 154 152 156" stroke-width="1.3"/><path d="M154 157C155 155 158 142 160 142C161 142 163 155 164 157" stroke-width="1.3"/><path d="M166 158C167 155 170 143 171 143C173 143 176 156 177 158" stroke-width="1.3"/><path d="M178 159C179 157 182 144 183 144C185 144 187 157 188 159" stroke-width="1.3"/><path d="M191 161C191 158 194 146 195 146C197 146 200 158 201 161" stroke-width="1.3"/><path d="M203 162C203 160 206 147 208 147C209 147 212 160 212 162" stroke-width="1.3"/><path d="M214 163C215 161 218 149 219 149C221 149 223 161 224 163" stroke-width="1.3"/><path d="M226 165C227 163 230 150 231 150C233 150 236 162 236 165" stroke-width="1.3"/><path d="M238 166C239 163 242 151 243 151C245 151 248 164 249 166" stroke-width="1.3"/><path d="M250 167C251 164 254 152 255 152C257 152 259 165 260 167" stroke-width="1.3"/><path d="M262 168C263 165 265 153 267 153C269 153 271 165 272 168" stroke-width="1.3"/><path d="M275 168C275 166 278 153 279 153C281 153 284 166 285 168" stroke-width="1.3"/><path d="M286 168C287 165 290 153 292 153C293 153 295 166 296 168" stroke-width="1.3"/><path d="M298 167C299 165 302 153 304 153C305 153 308 165 309 167" stroke-width="1.3"/><path d="M310 167C311 164 314 152 315 152C317 152 319 164 320 167" stroke-width="1.3"/><path d="M323 166C323 163 326 151 328 151C329 151 332 163 332 166" stroke-width="1.3"/><path d="M334 165C335 162 338 150 339 150C341 150 343 162 344 165" stroke-width="1.3"/><path d="M347 163C347 161 350 148 351 148C353 148 356 161 357 163" stroke-width="1.3"/><path d="M43 243C54 244 87 248 108 249C130 250 151 249 172 248C193 247 214 243 235 241C256 239 278 237 299 238C320 238 352 242 363 243" stroke-width="2.6"/><path d="M43 266C54 267 87 272 108 273C130 274 150 274 171 273C193 271 214 266 235 265C256 263 277 262 299 263C320 263 352 267 363 268" stroke-width="2.6"/><line x1="44" y1="242" x2="44" y2="266" stroke-width="2"/><line x1="363" y1="244" x2="363" y2="268" stroke-width="2"/><line x1="52" y1="255" x2="61" y2="255" stroke-width="1.6"/><line x1="67" y1="257" x2="76" y2="257" stroke-width="1.6"/><line x1="82" y1="259" x2="91" y2="259" stroke-width="1.6"/><line x1="97" y1="260" x2="106" y2="260" stroke-width="1.6"/><line x1="112" y1="261" x2="121" y2="261" stroke-width="1.6"/><line x1="127" y1="262" x2="136" y2="262" stroke-width="1.6"/><line x1="142" y1="262" x2="151" y2="262" stroke-width="1.6"/><line x1="157" y1="261" x2="166" y2="261" stroke-width="1.6"/><line x1="172" y1="260" x2="181" y2="260" stroke-width="1.6"/><line x1="187" y1="259" x2="196" y2="259" stroke-width="1.6"/><line x1="202" y1="257" x2="211" y2="257" stroke-width="1.6"/><line x1="217" y1="255" x2="226" y2="255" stroke-width="1.6"/><line x1="232" y1="254" x2="241" y2="254" stroke-width="1.6"/><line x1="247" y1="252" x2="256" y2="252" stroke-width="1.6"/><line x1="262" y1="251" x2="271" y2="251" stroke-width="1.6"/><line x1="277" y1="250" x2="286" y2="250" stroke-width="1.6"/><line x1="292" y1="250" x2="301" y2="250" stroke-width="1.6"/><line x1="307" y1="250" x2="316" y2="250" stroke-width="1.6"/><line x1="322" y1="251" x2="331" y2="251" stroke-width="1.6"/><line x1="337" y1="253" x2="346" y2="253" stroke-width="1.6"/><line x1="352" y1="254" x2="361" y2="254" stroke-width="1.6"/></g><g class="layer-2"><path d="M53 79C64 79 97 80 118 78C139 77 160 74 181 72C203 70 225 69 246 69C267 69 288 71 310 73C331 75 363 78 374 79" stroke-width="2.6"/><path d="M53 103C64 103 96 105 117 103C139 102 160 97 182 95C203 93 224 92 245 92C266 93 288 96 310 97C331 99 363 102 374 103" stroke-width="2.6"/><line x1="53" y1="79" x2="53" y2="103" stroke-width="2"/><line x1="374" y1="80" x2="374" y2="104" stroke-width="2"/><path d="M63 92C63 92 63 92 63 92C62 93 62 93 62 93C62 93 61 93 61 93C61 93 61 93 60 93C60 93 60 93 60 92C60 92 60 92 60 92C60 91 60 91 60 91C60 90 60 90 60 90C61 90 61 90 61 90C62 90 62 90 62 90C62 90 62 90 63 91C63 91 63 91 63 92Z" stroke-width="1.8"/><path d="M74 92C74 92 74 92 74 93C73 93 73 93 73 93C73 93 73 93 72 93C72 94 72 93 71 93C71 93 71 93 71 93C71 92 71 92 71 92C71 92 71 91 71 91C71 91 71 91 71 91C72 90 72 90 72 90C72 90 73 90 73 91C73 91 73 91 74 91C74 91 74 92 74 92Z" stroke-width="1.8"/><path d="M85 92C85 92 85 93 85 93C84 93 84 93 84 93C84 94 83 94 83 94C83 94 83 94 82 93C82 93 82 93 82 93C82 93 82 92 82 92C82 92 82 91 82 91C82 91 82 91 82 91C83 90 83 90 83 90C83 90 84 90 84 91C84 91 84 91 85 91C85 91 85 92 85 92Z" stroke-width="1.8"/><path d="M96 92C96 92 96 92 96 93C95 93 95 93 95 93C95 93 95 93 94 93C94 93 94 93 93 93C93 93 93 93 93 93C93 92 93 92 93 92C93 92 93 91 93 91C93 91 93 91 93 90C94 90 94 90 94 90C95 90 95 90 95 90C95 91 95 91 96 91C96 91 96 92 96 92Z" stroke-width="1.8"/><path d="M107 91C107 92 107 92 107 92C106 92 106 93 106 93C106 93 106 93 105 93C105 93 105 93 104 93C104 93 104 92 104 92C104 92 104 92 104 91C104 91 104 91 104 90C104 90 104 90 104 90C105 90 105 90 105 90C105 90 106 90 106 90C106 90 106 90 107 91C107 91 107 91 107 91Z" stroke-width="1.8"/><path d="M118 91C118 91 118 91 118 91C117 92 117 92 117 92C117 92 116 92 116 92C116 92 116 92 115 92C115 92 115 92 115 91C115 91 115 91 115 91C115 90 115 90 115 90C115 90 115 89 115 89C116 89 116 89 116 89C117 89 117 89 117 89C117 89 117 90 118 90C118 90 118 90 118 91Z" stroke-width="1.8"/><path d="M129 90C129 90 129 90 129 90C128 91 128 91 128 91C128 91 127 91 127 91C127 91 127 91 126 91C126 91 126 91 126 90C126 90 126 90 126 90C126 89 126 89 126 89C126 89 126 88 126 88C127 88 127 88 127 88C127 88 128 88 128 88C128 88 128 89 129 89C129 89 129 89 129 90Z" stroke-width="1.8"/><path d="M140 88C140 89 140 89 140 89C139 89 139 90 139 90C139 90 138 90 138 90C138 90 138 90 137 90C137 90 137 89 137 89C137 89 137 89 137 88C137 88 137 88 137 88C137 87 137 87 137 87C138 87 138 87 138 87C138 87 139 87 139 87C139 87 140 87 140 88C140 88 140 88 140 88Z" stroke-width="1.8"/><path d="M151 87C151 87 151 88 151 88C150 88 150 88 150 89C150 89 149 89 149 89C149 89 149 89 148 89C148 88 148 88 148 88C148 88 148 87 148 87C148 87 148 87 148 86C148 86 148 86 148 86C149 86 149 86 149 86C150 86 150 86 150 86C150 86 150 86 151 86C151 87 151 87 151 87Z" stroke-width="1.8"/><path d="M162 86C162 86 162 86 162 87C161 87 161 87 161 87C161 87 160 87 160 87C160 87 160 87 159 87C159 87 159 87 159 87C159 86 159 86 159 86C159 86 159 85 159 85C159 85 159 85 159 84C160 84 160 84 160 84C161 84 161 84 161 84C161 85 161 85 162 85C162 85 162 86 162 86Z" stroke-width="1.8"/><path d="M173 85C173 85 173 85 173 85C173 86 172 86 172 86C172 86 171 86 171 86C171 86 171 86 170 86C170 86 170 86 170 85C170 85 170 85 170 84C170 84 170 84 170 84C170 84 170 83 170 83C171 83 171 83 171 83C171 83 172 83 172 83C172 83 172 83 173 84C173 84 173 84 173 85Z" stroke-width="1.8"/><path d="M184 83C184 84 184 84 184 84C183 84 183 85 183 85C183 85 183 85 182 85C182 85 182 85 181 85C181 85 181 84 181 84C181 84 181 84 181 83C181 83 181 83 181 82C181 82 181 82 181 82C182 82 182 82 182 82C182 82 183 82 183 82C183 82 183 82 184 82C184 83 184 83 184 83Z" stroke-width="1.8"/><path d="M195 82C195 82 195 83 195 83C194 83 194 83 194 84C194 84 193 84 193 84C193 84 193 84 192 84C192 83 192 83 192 83C192 83 192 82 192 82C192 82 192 82 192 81C192 81 192 81 192 81C193 81 193 81 193 81C193 81 194 81 194 81C194 81 194 81 195 81C195 82 195 82 195 82Z" stroke-width="1.8"/><path d="M206 81C206 81 206 82 206 82C205 82 205 82 205 83C205 83 204 83 204 83C204 83 204 83 203 83C203 82 203 82 203 82C203 82 203 81 203 81C203 81 203 81 203 80C203 80 203 80 203 80C204 80 204 80 204 80C205 80 205 80 205 80C205 80 205 80 206 80C206 81 206 81 206 81Z" stroke-width="1.8"/><path d="M217 81C217 81 217 81 217 81C216 82 216 82 216 82C216 82 215 82 215 82C215 82 215 82 214 82C214 82 214 82 214 81C214 81 214 81 214 81C214 80 214 80 214 80C214 79 214 79 214 79C215 79 215 79 215 79C216 79 216 79 216 79C216 79 216 80 217 80C217 80 217 80 217 81Z" stroke-width="1.8"/><path d="M228 80C228 80 228 81 228 81C227 81 227 81 227 82C227 82 227 82 226 82C226 82 226 82 225 81C225 81 225 81 225 81C225 81 225 80 225 80C225 80 225 80 225 79C225 79 225 79 225 79C226 79 226 79 226 79C227 79 227 79 227 79C227 79 227 79 228 79C228 80 228 80 228 80Z" stroke-width="1.8"/><path d="M239 80C239 80 239 81 239 81C239 81 238 81 238 81C238 82 238 82 237 82C237 82 237 82 236 81C236 81 236 81 236 81C236 81 236 80 236 80C236 80 236 79 236 79C236 79 236 79 236 79C237 78 237 78 237 78C238 78 238 78 238 79C238 79 238 79 239 79C239 79 239 80 239 80Z" stroke-width="1.8"/><path d="M250 80C250 80 250 81 250 81C249 81 249 81 249 82C249 82 248 82 248 82C248 82 248 82 247 82C247 81 247 81 247 81C247 81 247 80 247 80C247 80 247 80 247 79C247 79 247 79 247 79C248 79 248 79 248 79C248 79 249 79 249 79C249 79 250 79 250 79C250 80 250 80 250 80Z" stroke-width="1.8"/><path d="M261 81C261 81 261 81 261 81C260 82 260 82 260 82C260 82 259 82 259 82C259 82 259 82 258 82C258 82 258 82 258 81C258 81 258 81 258 81C258 80 258 80 258 80C258 80 258 79 258 79C259 79 259 79 259 79C260 79 260 79 260 79C260 79 260 80 261 80C261 80 261 80 261 81Z" stroke-width="1.8"/><path d="M272 81C272 82 272 82 272 82C271 82 271 83 271 83C271 83 271 83 270 83C270 83 270 83 269 83C269 83 269 82 269 82C269 82 269 82 269 81C269 81 269 81 269 81C269 80 269 80 269 80C270 80 270 80 270 80C271 80 271 80 271 80C271 80 271 80 272 81C272 81 272 81 272 81Z" stroke-width="1.8"/><path d="M283 82C283 83 283 83 283 83C282 83 282 84 282 84C282 84 281 84 281 84C281 84 281 84 280 84C280 84 280 83 280 83C280 83 280 83 280 82C280 82 280 82 280 82C280 81 280 81 280 81C281 81 281 81 281 81C281 81 282 81 282 81C282 81 282 81 283 82C283 82 283 82 283 82Z" stroke-width="1.8"/><path d="M294 83C294 84 294 84 294 84C294 84 293 85 293 85C293 85 293 85 292 85C292 85 292 85 291 85C291 85 291 84 291 84C291 84 291 84 291 83C291 83 291 83 291 83C291 82 291 82 291 82C292 82 292 82 292 82C292 82 293 82 293 82C293 82 293 82 294 83C294 83 294 83 294 83Z" stroke-width="1.8"/><path d="M305 85C305 85 305 85 305 86C304 86 304 86 304 86C304 86 303 86 303 86C303 86 303 86 302 86C302 86 302 86 302 86C302 85 302 85 302 85C302 84 302 84 302 84C302 84 302 83 302 83C303 83 303 83 303 83C304 83 304 83 304 83C304 83 304 84 305 84C305 84 305 84 305 85Z" stroke-width="1.8"/><path d="M316 86C316 86 316 87 316 87C315 87 315 87 315 87C315 88 315 88 314 88C314 88 314 88 313 87C313 87 313 87 313 87C313 87 313 86 313 86C313 86 313 85 313 85C313 85 313 85 313 85C314 85 314 84 314 84C315 84 315 85 315 85C315 85 315 85 316 85C316 85 316 86 316 86Z" stroke-width="1.8"/><path d="M327 87C327 88 327 88 327 88C327 88 326 89 326 89C326 89 325 89 325 89C325 89 325 89 324 89C324 89 324 88 324 88C324 88 324 88 324 87C324 87 324 87 324 87C324 86 324 86 324 86C325 86 325 86 325 86C325 86 326 86 326 86C326 86 327 86 327 87C327 87 327 87 327 87Z" stroke-width="1.8"/><path d="M338 89C338 89 338 89 338 89C337 90 337 90 337 90C337 90 336 90 336 90C336 90 336 90 335 90C335 90 335 90 335 89C335 89 335 89 335 89C335 88 335 88 335 88C335 88 335 87 335 87C336 87 336 87 336 87C337 87 337 87 337 87C337 87 337 88 338 88C338 88 338 88 338 89Z" stroke-width="1.8"/><path d="M349 90C349 90 349 90 349 91C348 91 348 91 348 91C348 91 347 91 347 91C347 91 347 91 346 91C346 91 346 91 346 91C346 90 346 90 346 90C346 90 346 89 346 89C346 89 346 89 346 88C347 88 347 88 347 88C348 88 348 88 348 88C348 89 349 89 349 89C349 89 349 89 349 90Z" stroke-width="1.8"/><path d="M360 91C360 91 360 91 360 91C359 92 359 92 359 92C359 92 358 92 358 92C358 92 358 92 357 92C357 92 357 92 357 91C357 91 357 91 357 91C357 90 357 90 357 90C357 90 357 89 357 89C358 89 358 89 358 89C359 89 359 89 359 89C359 89 359 90 360 90C360 90 360 90 360 91Z" stroke-width="1.8"/><path d="M42 171C53 171 85 170 108 171C130 172 154 176 177 178C200 179 221 181 244 181C266 181 289 179 311 177C334 175 368 171 379 170" stroke-width="2.6"/><path d="M41 196C53 196 87 194 109 195C132 195 154 199 177 201C199 203 222 206 244 206C267 206 289 204 312 202C334 200 368 196 379 195" stroke-width="2.6"/><line x1="41" y1="171" x2="41" y2="195" stroke-width="2"/><line x1="380" y1="171" x2="380" y2="195" stroke-width="2"/><line x1="49" y1="174" x2="55" y2="192" stroke-width="1.1"/><line x1="56" y1="174" x2="62" y2="192" stroke-width="1.1"/><line x1="63" y1="173" x2="69" y2="191" stroke-width="1.1"/><line x1="70" y1="173" x2="76" y2="191" stroke-width="1.1"/><line x1="77" y1="173" x2="83" y2="191" stroke-width="1.1"/><line x1="84" y1="173" x2="90" y2="191" stroke-width="1.1"/><line x1="91" y1="173" x2="97" y2="191" stroke-width="1.1"/><line x1="98" y1="173" x2="104" y2="191" stroke-width="1.1"/><line x1="105" y1="174" x2="111" y2="192" stroke-width="1.1"/><line x1="112" y1="174" x2="118" y2="192" stroke-width="1.1"/><line x1="119" y1="175" x2="125" y2="193" stroke-width="1.1"/><line x1="126" y1="175" x2="132" y2="193" stroke-width="1.1"/><line x1="133" y1="176" x2="139" y2="194" stroke-width="1.1"/><line x1="140" y1="177" x2="146" y2="195" stroke-width="1.1"/><line x1="147" y1="178" x2="153" y2="196" stroke-width="1.1"/><line x1="154" y1="178" x2="160" y2="196" stroke-width="1.1"/><line x1="161" y1="179" x2="167" y2="197" stroke-width="1.1"/><line x1="168" y1="180" x2="174" y2="198" stroke-width="1.1"/><line x1="175" y1="181" x2="181" y2="199" stroke-width="1.1"/><line x1="182" y1="181" x2="188" y2="199" stroke-width="1.1"/><line x1="189" y1="182" x2="195" y2="200" stroke-width="1.1"/><line x1="196" y1="183" x2="202" y2="201" stroke-width="1.1"/><line x1="203" y1="183" x2="209" y2="201" stroke-width="1.1"/><line x1="210" y1="184" x2="216" y2="202" stroke-width="1.1"/><line x1="217" y1="184" x2="223" y2="202" stroke-width="1.1"/><line x1="224" y1="185" x2="230" y2="203" stroke-width="1.1"/><line x1="231" y1="185" x2="237" y2="203" stroke-width="1.1"/><line x1="238" y1="185" x2="244" y2="203" stroke-width="1.1"/><line x1="245" y1="185" x2="251" y2="203" stroke-width="1.1"/><line x1="252" y1="185" x2="258" y2="203" stroke-width="1.1"/><line x1="259" y1="185" x2="265" y2="203" stroke-width="1.1"/><line x1="266" y1="184" x2="272" y2="202" stroke-width="1.1"/><line x1="273" y1="184" x2="279" y2="202" stroke-width="1.1"/><line x1="280" y1="183" x2="286" y2="201" stroke-width="1.1"/><line x1="287" y1="183" x2="293" y2="201" stroke-width="1.1"/><line x1="294" y1="182" x2="300" y2="200" stroke-width="1.1"/><line x1="301" y1="182" x2="307" y2="200" stroke-width="1.1"/><line x1="308" y1="181" x2="314" y2="199" stroke-width="1.1"/><line x1="315" y1="180" x2="321" y2="198" stroke-width="1.1"/><line x1="322" y1="179" x2="328" y2="197" stroke-width="1.1"/><line x1="329" y1="178" x2="335" y2="196" stroke-width="1.1"/><line x1="336" y1="178" x2="342" y2="196" stroke-width="1.1"/><line x1="343" y1="177" x2="349" y2="195" stroke-width="1.1"/><line x1="350" y1="176" x2="356" y2="194" stroke-width="1.1"/><line x1="357" y1="175" x2="363" y2="193" stroke-width="1.1"/><line x1="364" y1="175" x2="370" y2="193" stroke-width="1.1"/><line x1="371" y1="174" x2="377" y2="192" stroke-width="1.1"/><path d="M49 282C60 282 92 284 114 283C135 282 156 279 178 277C200 275 221 273 243 272C264 272 286 275 307 276C329 278 361 282 372 283" stroke-width="2.6"/><path d="M48 306C59 306 92 307 114 307C135 306 156 303 177 301C199 299 221 296 243 296C265 296 286 299 308 300C329 302 362 305 373 306" stroke-width="2.6"/><line x1="48" y1="282" x2="48" y2="306" stroke-width="2"/><line x1="372" y1="283" x2="372" y2="307" stroke-width="2"/><path d="M56 302C57 300 59 288 61 288C63 288 66 300 66 303" stroke-width="1.3"/><path d="M68 303C69 301 71 288 73 288C75 288 78 301 79 303" stroke-width="1.3"/><path d="M80 304C81 302 84 289 85 289C87 289 90 301 90 304" stroke-width="1.3"/><path d="M92 304C93 302 95 289 97 289C99 289 101 302 102 304" stroke-width="1.3"/><path d="M104 304C105 301 108 289 109 289C111 289 113 301 114 304" stroke-width="1.3"/><path d="M116 303C117 301 120 288 121 288C123 289 126 301 126 303" stroke-width="1.3"/><path d="M128 302C129 300 131 288 133 288C135 288 137 300 138 302" stroke-width="1.3"/><path d="M140 301C141 299 144 286 145 286C147 286 149 299 150 301" stroke-width="1.3"/><path d="M152 300C153 297 156 285 157 285C159 285 161 297 162 300" stroke-width="1.3"/><path d="M164 298C165 296 168 283 169 284C171 284 173 296 174 299" stroke-width="1.3"/><path d="M176 297C177 294 179 282 181 282C183 282 185 295 186 297" stroke-width="1.3"/><path d="M188 296C189 293 191 281 193 281C195 281 197 293 198 296" stroke-width="1.3"/><path d="M200 295C201 292 204 279 205 279C207 279 209 292 210 295" stroke-width="1.3"/><path d="M213 294C213 291 215 279 217 279C219 278 221 291 222 293" stroke-width="1.3"/><path d="M224 293C225 290 227 278 229 278C231 278 233 290 234 293" stroke-width="1.3"/><path d="M236 292C237 290 239 277 241 277C243 277 245 290 246 292" stroke-width="1.3"/><path d="M248 292C249 289 252 277 253 277C255 277 257 290 258 292" stroke-width="1.3"/><path d="M260 292C261 290 263 277 265 277C267 277 269 290 270 292" stroke-width="1.3"/><path d="M272 292C273 290 276 278 277 278C279 278 281 290 282 293" stroke-width="1.3"/><path d="M284 293C285 291 288 279 289 279C291 279 294 291 295 294" stroke-width="1.3"/><path d="M296 295C297 292 300 280 301 280C303 280 305 292 306 295" stroke-width="1.3"/><path d="M308 296C309 293 312 281 313 281C315 281 317 294 318 296" stroke-width="1.3"/><path d="M321 297C321 295 324 283 325 283C327 283 329 295 330 297" stroke-width="1.3"/><path d="M332 299C333 296 336 284 337 284C339 284 341 296 342 299" stroke-width="1.3"/><path d="M344 300C345 298 347 285 349 285C351 285 354 298 354 300" stroke-width="1.3"/><path d="M356 301C357 299 360 286 361 286C363 286 365 299 366 301" stroke-width="1.3"/></g><g class="layer-3"><path d="M34 114C45 112 78 109 101 107C123 105 146 102 169 102C191 102 212 103 234 105C256 107 278 111 301 112C323 113 357 112 368 112" stroke-width="2.6"/><path d="M34 137C45 136 79 133 102 131C124 129 145 126 167 126C190 125 212 128 234 130C256 132 279 135 301 136C323 137 356 137 367 137" stroke-width="2.6"/><line x1="35" y1="113" x2="35" y2="137" stroke-width="2"/><line x1="368" y1="113" x2="368" y2="137" stroke-width="2"/><line x1="43" y1="125" x2="52" y2="125" stroke-width="1.6"/><line x1="58" y1="124" x2="67" y2="124" stroke-width="1.6"/><line x1="73" y1="122" x2="82" y2="122" stroke-width="1.6"/><line x1="88" y1="121" x2="97" y2="121" stroke-width="1.6"/><line x1="103" y1="119" x2="112" y2="119" stroke-width="1.6"/><line x1="118" y1="117" x2="127" y2="117" stroke-width="1.6"/><line x1="133" y1="116" x2="142" y2="116" stroke-width="1.6"/><line x1="148" y1="115" x2="157" y2="115" stroke-width="1.6"/><line x1="163" y1="114" x2="172" y2="114" stroke-width="1.6"/><line x1="178" y1="114" x2="187" y2="114" stroke-width="1.6"/><line x1="193" y1="114" x2="202" y2="114" stroke-width="1.6"/><line x1="208" y1="115" x2="217" y2="115" stroke-width="1.6"/><line x1="223" y1="117" x2="232" y2="117" stroke-width="1.6"/><line x1="238" y1="118" x2="247" y2="118" stroke-width="1.6"/><line x1="253" y1="120" x2="262" y2="120" stroke-width="1.6"/><line x1="268" y1="122" x2="277" y2="122" stroke-width="1.6"/><line x1="283" y1="123" x2="292" y2="123" stroke-width="1.6"/><line x1="298" y1="125" x2="307" y2="125" stroke-width="1.6"/><line x1="313" y1="125" x2="322" y2="125" stroke-width="1.6"/><line x1="328" y1="126" x2="337" y2="126" stroke-width="1.6"/><line x1="343" y1="126" x2="352" y2="126" stroke-width="1.6"/><line x1="358" y1="125" x2="367" y2="125" stroke-width="1.6"/><path d="M52 204C63 205 95 209 115 211C136 213 155 216 176 216C196 217 218 215 238 214C259 212 279 207 299 205C319 204 350 205 360 205" stroke-width="2.6"/><path d="M53 229C63 230 94 232 114 234C135 236 155 239 176 240C197 240 217 239 238 238C259 236 279 232 299 230C319 229 350 229 360 228" stroke-width="2.6"/><line x1="53" y1="204" x2="53" y2="228" stroke-width="2"/><line x1="361" y1="205" x2="361" y2="229" stroke-width="2"/><path d="M63 217C63 217 63 217 62 217C62 218 62 218 62 218C62 218 61 218 61 218C61 218 60 218 60 218C60 218 60 218 60 217C59 217 59 217 59 217C59 216 59 216 60 216C60 216 60 215 60 215C60 215 61 215 61 215C61 215 62 215 62 215C62 215 62 216 62 216C63 216 63 216 63 217Z" stroke-width="1.8"/><path d="M74 217C74 218 73 218 73 218C73 218 73 219 73 219C73 219 72 219 72 219C72 219 71 219 71 219C71 219 71 218 71 218C70 218 70 218 70 217C70 217 70 217 71 217C71 216 71 216 71 216C71 216 72 216 72 216C72 216 73 216 73 216C73 216 73 216 73 217C74 217 74 217 74 217Z" stroke-width="1.8"/><path d="M85 218C85 219 84 219 84 219C84 219 84 220 84 220C84 220 83 220 83 220C83 220 82 220 82 220C82 220 82 219 82 219C81 219 81 219 81 218C81 218 81 218 82 218C82 217 82 217 82 217C82 217 83 217 83 217C83 217 84 217 84 217C84 217 84 217 84 218C84 218 85 218 85 218Z" stroke-width="1.8"/><path d="M96 220C96 220 96 220 95 220C95 221 95 221 95 221C95 221 94 221 94 221C94 221 93 221 93 221C93 221 93 221 93 220C92 220 92 220 92 220C92 219 92 219 93 219C93 219 93 218 93 218C93 218 94 218 94 218C94 218 95 218 95 218C95 218 95 219 95 219C95 219 96 219 96 220Z" stroke-width="1.8"/><path d="M107 221C107 221 107 221 106 222C106 222 106 222 106 222C106 222 105 222 105 222C105 222 104 222 104 222C104 222 104 222 104 222C103 221 103 221 103 221C103 221 103 220 104 220C104 220 104 220 104 220C104 219 105 219 105 219C105 219 106 219 106 219C106 220 106 220 106 220C106 220 107 221 107 221Z" stroke-width="1.8"/><path d="M118 222C118 223 117 223 117 223C117 223 117 224 117 224C117 224 116 224 116 224C116 224 115 224 115 224C115 224 115 223 115 223C114 223 114 223 114 222C114 222 114 222 115 221C115 221 115 221 115 221C115 221 116 221 116 221C116 221 117 221 117 221C117 221 117 221 117 221C118 222 118 222 118 222Z" stroke-width="1.8"/><path d="M129 224C129 224 129 224 128 224C128 225 128 225 128 225C128 225 127 225 127 225C127 225 126 225 126 225C126 225 126 225 126 224C125 224 125 224 125 224C125 223 125 223 126 223C126 223 126 222 126 222C126 222 127 222 127 222C127 222 128 222 128 222C128 222 128 223 128 223C129 223 129 223 129 224Z" stroke-width="1.8"/><path d="M140 225C140 225 140 226 139 226C139 226 139 226 139 226C139 226 138 227 138 227C138 227 137 226 137 226C137 226 137 226 137 226C136 225 136 225 136 225C136 225 136 224 137 224C137 224 137 224 137 224C137 223 138 223 138 223C138 223 139 223 139 224C139 224 139 224 139 224C140 224 140 225 140 225Z" stroke-width="1.8"/><path d="M151 226C151 226 151 227 150 227C150 227 150 227 150 227C150 228 149 228 149 228C149 228 148 228 148 227C148 227 148 227 148 227C147 227 147 226 147 226C147 226 147 225 148 225C148 225 148 225 148 225C148 225 149 224 149 224C149 224 150 225 150 225C150 225 150 225 150 225C150 225 151 226 151 226Z" stroke-width="1.8"/><path d="M162 227C162 227 162 228 161 228C161 228 161 228 161 228C161 228 160 229 160 229C160 229 159 228 159 228C159 228 159 228 159 228C158 228 158 227 158 227C158 227 158 226 159 226C159 226 159 226 159 226C159 225 160 225 160 225C160 225 161 225 161 226C161 226 161 226 161 226C162 226 162 227 162 227Z" stroke-width="1.8"/><path d="M173 228C173 228 173 228 172 228C172 229 172 229 172 229C172 229 171 229 171 229C171 229 170 229 170 229C170 229 170 229 170 228C169 228 169 228 169 228C169 227 169 227 170 227C170 227 170 226 170 226C170 226 171 226 171 226C171 226 172 226 172 226C172 226 172 227 172 227C173 227 173 227 173 228Z" stroke-width="1.8"/><path d="M184 228C184 228 183 229 183 229C183 229 183 229 183 229C183 229 182 230 182 230C182 230 181 229 181 229C181 229 181 229 181 229C180 229 180 228 180 228C180 228 180 227 181 227C181 227 181 227 181 227C181 226 182 226 182 226C182 226 183 226 183 227C183 227 183 227 183 227C184 227 184 228 184 228Z" stroke-width="1.8"/><path d="M195 228C195 228 194 229 194 229C194 229 194 229 194 229C194 229 193 230 193 230C193 230 192 230 192 229C192 229 192 229 192 229C191 229 191 228 191 228C191 228 191 227 192 227C192 227 192 227 192 227C192 226 193 226 193 226C193 226 194 226 194 227C194 227 194 227 194 227C195 227 195 228 195 228Z" stroke-width="1.8"/><path d="M206 228C206 228 205 228 205 228C205 229 205 229 205 229C205 229 204 229 204 229C204 229 203 229 203 229C203 229 203 229 203 228C202 228 202 228 202 228C202 227 202 227 203 227C203 227 203 226 203 226C203 226 204 226 204 226C204 226 205 226 205 226C205 226 205 227 205 227C206 227 206 227 206 228Z" stroke-width="1.8"/><path d="M217 227C217 227 217 228 216 228C216 228 216 228 216 228C216 229 215 229 215 229C215 229 214 229 214 228C214 228 214 228 214 228C213 228 213 227 213 227C213 227 213 227 214 226C214 226 214 226 214 226C214 226 215 225 215 225C215 225 216 226 216 226C216 226 216 226 216 226C216 227 217 227 217 227Z" stroke-width="1.8"/><path d="M228 226C228 226 228 227 227 227C227 227 227 227 227 228C227 228 226 228 226 228C226 228 225 228 225 228C225 227 225 227 225 227C224 227 224 226 224 226C224 226 224 226 225 225C225 225 225 225 225 225C225 225 226 225 226 225C226 225 227 225 227 225C227 225 227 225 227 225C227 226 228 226 228 226Z" stroke-width="1.8"/><path d="M239 225C239 225 238 226 238 226C238 226 238 226 238 226C238 227 237 227 237 227C237 227 236 227 236 226C236 226 236 226 236 226C235 226 235 225 235 225C235 225 235 225 236 224C236 224 236 224 236 224C236 224 237 224 237 224C237 224 238 224 238 224C238 224 238 224 238 224C238 225 239 225 239 225Z" stroke-width="1.8"/><path d="M250 224C250 224 249 224 249 225C249 225 249 225 249 225C249 225 248 225 248 225C248 225 247 225 247 225C247 225 247 225 247 225C246 224 246 224 246 224C246 224 246 223 247 223C247 223 247 223 247 222C247 222 248 222 248 222C248 222 249 222 249 222C249 223 249 223 249 223C250 223 250 224 250 224Z" stroke-width="1.8"/><path d="M261 222C261 223 260 223 260 223C260 224 260 224 260 224C260 224 259 224 259 224C259 224 258 224 258 224C258 224 258 223 258 223C257 223 257 223 257 222C257 222 257 222 258 222C258 221 258 221 258 221C258 221 259 221 259 221C259 221 260 221 260 221C260 221 260 221 260 222C261 222 261 222 261 222Z" stroke-width="1.8"/><path d="M272 221C272 221 272 222 271 222C271 222 271 222 271 222C271 223 270 223 270 223C270 223 269 223 269 222C269 222 269 222 269 222C268 222 268 221 268 221C268 221 268 221 269 220C269 220 269 220 269 220C269 220 270 219 270 219C270 219 271 220 271 220C271 220 271 220 271 220C271 221 272 221 272 221Z" stroke-width="1.8"/><path d="M283 220C283 220 282 220 282 221C282 221 282 221 282 221C282 221 281 221 281 221C281 221 280 221 280 221C280 221 280 221 280 221C279 220 279 220 279 220C279 219 279 219 280 219C280 219 280 218 280 218C280 218 281 218 281 218C281 218 282 218 282 218C282 219 282 219 282 219C283 219 283 219 283 220Z" stroke-width="1.8"/><path d="M294 219C294 219 294 219 293 219C293 220 293 220 293 220C293 220 292 220 292 220C292 220 291 220 291 220C291 220 291 220 291 219C290 219 290 219 290 219C290 218 290 218 291 218C291 217 291 217 291 217C291 217 292 217 292 217C292 217 293 217 293 217C293 217 293 217 293 218C293 218 294 218 294 219Z" stroke-width="1.8"/><path d="M305 217C305 218 305 218 304 218C304 219 304 219 304 219C304 219 303 219 303 219C303 219 302 219 302 219C302 219 302 219 302 218C301 218 301 218 301 217C301 217 301 217 302 217C302 216 302 216 302 216C302 216 303 216 303 216C303 216 304 216 304 216C304 216 304 216 304 217C305 217 305 217 305 217Z" stroke-width="1.8"/><path d="M316 217C316 217 315 217 315 218C315 218 315 218 315 218C315 218 314 218 314 218C314 218 313 218 313 218C313 218 313 218 313 218C312 217 312 217 312 217C312 216 312 216 313 216C313 216 313 215 313 215C313 215 314 215 314 215C314 215 315 215 315 215C315 215 315 216 315 216C316 216 316 216 316 217Z" stroke-width="1.8"/><path d="M327 216C327 216 326 217 326 217C326 217 326 217 326 218C326 218 325 218 325 218C325 218 324 218 324 218C324 217 324 217 324 217C323 217 323 216 323 216C323 216 323 216 324 215C324 215 324 215 324 215C324 215 325 215 325 215C325 215 326 215 326 215C326 215 326 215 326 215C326 216 327 216 327 216Z" stroke-width="1.8"/><path d="M338 216C338 216 338 217 337 217C337 217 337 217 337 217C337 217 336 218 336 218C336 218 335 218 335 217C335 217 335 217 335 217C334 217 334 216 334 216C334 216 334 215 335 215C335 215 335 215 335 215C335 214 336 214 336 214C336 214 337 214 337 215C337 215 337 215 337 215C338 215 338 216 338 216Z" stroke-width="1.8"/><path d="M349 216C349 216 348 217 348 217C348 217 348 217 348 217C348 218 347 218 347 218C347 218 346 218 346 218C346 217 346 217 346 217C345 217 345 216 345 216C345 216 345 216 346 215C346 215 346 215 346 215C346 215 347 215 347 215C347 215 348 215 348 215C348 215 348 215 348 215C349 216 349 216 349 216Z" stroke-width="1.8"/><path d="M41 318C52 317 85 314 107 312C130 310 152 307 175 306C197 305 219 306 241 308C263 310 285 314 307 316C329 318 362 317 373 317" stroke-width="2.6"/><path d="M41 341C52 341 87 339 109 337C131 335 152 331 174 331C196 330 218 330 240 332C262 333 285 338 308 340C330 342 362 342 373 342" stroke-width="2.6"/><line x1="42" y1="318" x2="42" y2="342" stroke-width="2"/><line x1="373" y1="318" x2="373" y2="342" stroke-width="2"/><line x1="50" y1="321" x2="56" y2="339" stroke-width="1.1"/><line x1="57" y1="320" x2="63" y2="338" stroke-width="1.1"/><line x1="64" y1="320" x2="70" y2="338" stroke-width="1.1"/><line x1="71" y1="320" x2="77" y2="338" stroke-width="1.1"/><line x1="78" y1="319" x2="84" y2="337" stroke-width="1.1"/><line x1="85" y1="318" x2="91" y2="336" stroke-width="1.1"/><line x1="92" y1="318" x2="98" y2="336" stroke-width="1.1"/><line x1="99" y1="317" x2="105" y2="335" stroke-width="1.1"/><line x1="106" y1="316" x2="112" y2="334" stroke-width="1.1"/><line x1="113" y1="315" x2="119" y2="333" stroke-width="1.1"/><line x1="120" y1="314" x2="126" y2="332" stroke-width="1.1"/><line x1="127" y1="314" x2="133" y2="332" stroke-width="1.1"/><line x1="134" y1="313" x2="140" y2="331" stroke-width="1.1"/><line x1="141" y1="312" x2="147" y2="330" stroke-width="1.1"/><line x1="148" y1="311" x2="154" y2="329" stroke-width="1.1"/><line x1="155" y1="311" x2="161" y2="329" stroke-width="1.1"/><line x1="162" y1="310" x2="168" y2="328" stroke-width="1.1"/><line x1="169" y1="310" x2="175" y2="328" stroke-width="1.1"/><line x1="176" y1="309" x2="182" y2="327" stroke-width="1.1"/><line x1="183" y1="309" x2="189" y2="327" stroke-width="1.1"/><line x1="190" y1="309" x2="196" y2="327" stroke-width="1.1"/><line x1="197" y1="309" x2="203" y2="327" stroke-width="1.1"/><line x1="204" y1="309" x2="210" y2="327" stroke-width="1.1"/><line x1="211" y1="309" x2="217" y2="327" stroke-width="1.1"/><line x1="218" y1="310" x2="224" y2="328" stroke-width="1.1"/><line x1="225" y1="310" x2="231" y2="328" stroke-width="1.1"/><line x1="232" y1="311" x2="238" y2="329" stroke-width="1.1"/><line x1="239" y1="311" x2="245" y2="329" stroke-width="1.1"/><line x1="246" y1="312" x2="252" y2="330" stroke-width="1.1"/><line x1="253" y1="312" x2="259" y2="330" stroke-width="1.1"/><line x1="260" y1="313" x2="266" y2="331" stroke-width="1.1"/><line x1="267" y1="314" x2="273" y2="332" stroke-width="1.1"/><line x1="274" y1="315" x2="280" y2="333" stroke-width="1.1"/><line x1="281" y1="316" x2="287" y2="334" stroke-width="1.1"/><line x1="288" y1="317" x2="294" y2="335" stroke-width="1.1"/><line x1="295" y1="317" x2="301" y2="335" stroke-width="1.1"/><line x1="302" y1="318" x2="308" y2="336" stroke-width="1.1"/><line x1="309" y1="319" x2="315" y2="337" stroke-width="1.1"/><line x1="316" y1="319" x2="322" y2="337" stroke-width="1.1"/><line x1="323" y1="320" x2="329" y2="338" stroke-width="1.1"/><line x1="330" y1="320" x2="336" y2="338" stroke-width="1.1"/><line x1="337" y1="321" x2="343" y2="339" stroke-width="1.1"/><line x1="344" y1="321" x2="350" y2="339" stroke-width="1.1"/><line x1="351" y1="321" x2="357" y2="339" stroke-width="1.1"/><line x1="358" y1="321" x2="364" y2="339" stroke-width="1.1"/><line x1="365" y1="321" x2="371" y2="339" stroke-width="1.1"/></g></svg>