<svg xmlns="http://www.w3.org/2000/svg" viewBox="0 0 600 250" fill="none" stroke="currentColor" stroke-linecap="round" stroke-linejoin="round" aria-hidden="true" focusable="false"><path d="M0 40C8 42 33 50 50 51C66 52 84 48 100 45C117 42 133 34 150 32C166 29 183 29 200 31C217 33 233 40 250 44C267 47 283 51 300 51C316 51 333 46 350 42C366 39 384 31 400 30C417 28 434 30 450 33C467 36 484 43 500 46C517 49 534 52 550 50C567 49 592 41 600 39" stroke-width="3"/><path d="M14 50C22 52 47 60 64 61C80 62 97 58 114 55C131 52 147 45 164 42C181 40 197 39 214 40C231 42 247 49 264 53C280 57 297 62 314 61C331 61 348 56 364 52C381 49 398 42 414 40C431 39 448 40 464 42C481 45 497 53 514 56C530 59 556 60 564 60" stroke-width="1.2"/><path d="M0 78C8 78 33 81 50 78C66 76 83 70 100 66C117 63 133 58 150 59C166 59 183 66 200 69C217 73 234 79 250 80C267 81 284 79 300 77C317 74 334 66 350 64C367 61 383 59 400 60C416 61 433 68 450 71C467 75 483 81 500 81C517 82 534 77 550 74C567 71 591 63 600 61" stroke-width="1.6"/><path d="M0 111C8 109 33 104 50 100C66 97 84 90 100 89C117 88 133 91 150 94C167 97 183 105 200 108C217 110 234 112 250 110C267 108 283 100 300 97C316 93 333 89 350 89C367 89 383 94 400 97C417 101 433 108 450 110C467 111 483 110 500 107C517 104 534 97 550 94C567 91 592 90 600 89" stroke-width="2.4"/><path d="M14 120C22 119 48 114 64 110C81 107 97 100 114 99C130 98 147 101 164 104C180 108 197 115 214 118C230 120 247 121 264 119C281 118 298 110 314 107C331 104 347 99 364 99C380 99 397 104 414 108C430 111 447 118 464 119C481 121 498 120 514 117C531 115 556 107 564 104" stroke-width="1.2"/><path d="M0 134C9 132 34 124 50 122C67 119 83 119 100 121C116 123 133 130 150 133C167 137 183 141 200 141C216 140 234 136 250 132C267 128 283 121 300 119C317 118 334 120 350 123C367 126 383 134 400 137C417 140 434 142 450 140C467 139 483 132 500 129C516 125 533 120 550 120C567 119 592 125 600 126" stroke-width="3"/><path d="M0 155C8 154 34 149 50 149C67 150 84 156 100 160C117 163 133 170 150 171C167 172 184 169 200 166C217 163 233 155 250 153C267 150 283 149 300 151C316 152 333 159 350 162C367 166 383 171 400 171C416 171 433 166 450 163C467 159 484 152 500 151C517 149 533 150 550 152C566 155 591 163 600 165" stroke-width="1.6"/><path d="M14 165C22 164 47 158 64 159C81 159 97 165 114 169C131 173 147 179 164 180C181 181 197 179 214 176C231 173 247 165 264 162C281 160 297 158 314 160C331 162 347 169 364 173C380 176 397 181 414 181C431 181 447 176 464 173C481 169 497 162 514 161C530 159 556 162 564 162" stroke-width="1.2"/><path d="M0 179C9 180 34 182 50 185C67 189 84 196 100 198C117 200 133 201 150 199C167 197 183 190 200 187C217 184 234 179 250 179C267 179 283 185 300 189C317 192 334 199 350 200C367 201 383 200 400 197C417 194 433 186 450 183C467 181 483 178 500 179C517 181 533 188 550 192C566 195 592 200 600 201" stroke-width="2.4"/><path d="M0 212C9 214 34 222 50 225C67 228 83 231 100 230C117 230 133 224 150 221C167 217 184 211 200 210C217 208 234 211 250 214C267 217 283 225 300 228C316 230 333 232 350 230C367 228 384 221 400 217C417 214 433 209 450 209C466 209 483 213 500 217C516 220 533 227 550 229C567 231 592 228 600 227" stroke-width="3"/><path d="M14 221C22 224 47 232 64 235C81 238 97 241 114 241C131 240 147 234 164 230C180 227 197 221 214 220C230 219 248 221 264 224C281 227 297 234 314 237C330 240 348 242 364 240C381 239 397 231 414 227C430 224 447 219 464 219C481 219 497 224 514 227C531 231 555 237 564 239" stroke-width="1.2"/><path d="M91 7C89 10 81 20 81 24C81 28 87 31 90 31C92 31 97 29 97 25C97 20 90 9 89 5" stroke-width="2"/><path d="M301 -8C299 -5 292 5 292 9C292 13 298 16 300 16C303 17 308 15 308 11C307 7 301 -4 299 -7" stroke-width="2"/><path d="M500 4C498 7 492 19 492 23C492 27 498 28 501 28C504 28 509 25 509 21C509 18 502 8 501 5" stroke-width="2"/></svg>